<?xml version="1.0" encoding="UTF-8" standalone="no"?>
<svg
   sodipodi:docname="vectorstock_1112511.svg"
   id="svg234"
   preserveAspectRatio="xMidYMid meet"
   viewBox="0 0 2964.000000 3001.000000"
   height="3001.000000pt"
   width="2964.000000pt"
   version="1.0"
   inkscape:version="1.2.2 (732a01da63, 2022-12-09)"
   inkscape:export-filename="vectorstock_1112511G.png"
   inkscape:export-xdpi="54.423851"
   inkscape:export-ydpi="54.423851"
   xmlns:inkscape="http://www.inkscape.org/namespaces/inkscape"
   xmlns:sodipodi="http://sodipodi.sourceforge.net/DTD/sodipodi-0.dtd"
   xmlns="http://www.w3.org/2000/svg"
   xmlns:svg="http://www.w3.org/2000/svg">
  <defs
     id="defs238" />
  <sodipodi:namedview
     id="namedview236"
     pagecolor="#ffffff"
     bordercolor="#000000"
     borderopacity="0.25"
     inkscape:showpageshadow="2"
     inkscape:pageopacity="0"
     inkscape:pagecheckerboard="true"
     inkscape:deskcolor="#d1d1d1"
     inkscape:document-units="pt"
     showgrid="false"
     inkscape:zoom="0.090744585"
     inkscape:cx="1090.9742"
     inkscape:cy="2143.3786"
     inkscape:window-width="1278"
     inkscape:window-height="668"
     inkscape:window-x="-7"
     inkscape:window-y="0"
     inkscape:window-maximized="0"
     inkscape:current-layer="svg234" />
  <g
     transform="matrix(0.04421278,0,0,-0.03967949,595.61869,1736.4616)"
     fill="#000000"
     stroke="none"
     id="g232"
     style="fill:#663399;fill-opacity:1"
     inkscape:export-filename=".\g232.png"
     inkscape:export-xdpi="72"
     inkscape:export-ydpi="72">
    <path
       d="m 5228,29991 c -31,-25 -81,-140 -110,-255 -17,-66 -20,-100 -15,-186 3,-58 11,-121 17,-140 29,-83 114,-108 172,-49 33,33 32,20 9,164 -10,66 7,191 39,284 37,108 37,123 3,161 -37,40 -80,48 -115,21 z"
       id="path2"
       style="fill:#663399;fill-opacity:1" />
    <path
       d="m 2675,29991 c -31,-13 -57,-48 -57,-75 0,-14 13,-47 30,-73 46,-71 75,-142 121,-298 52,-171 105,-285 163,-348 52,-55 90,-62 135,-23 42,36 38,86 -14,158 -47,67 -69,125 -118,307 -42,159 -80,243 -138,305 -44,48 -84,63 -122,47 z"
       id="path4"
       style="fill:#663399;fill-opacity:1" />
    <path
       d="m 24180,29633 c -22,-26 -54,-75 -70,-109 -29,-59 -110,-369 -110,-417 0,-44 59,-76 103,-56 32,14 50,59 83,195 31,133 64,220 108,286 41,61 44,85 15,122 -34,43 -78,36 -129,-21 z"
       id="path6"
       style="fill:#663399;fill-opacity:1" />
    <path
       d="m 755,28675 c -14,-13 -25,-35 -25,-48 0,-72 234,-280 386,-342 63,-26 142,-33 162,-13 21,21 15,75 -10,92 -12,9 -29,16 -36,16 -37,0 -98,45 -218,161 -171,166 -209,185 -259,134 z"
       id="path8"
       style="fill:#663399;fill-opacity:1" />
    <path
       d="m 12147,28658 c -53,-57 -124,-154 -149,-202 l -20,-38 -19,21 c -26,27 -53,27 -269,-5 -195,-29 -205,-33 -221,-104 -20,-88 25,-162 170,-278 129,-103 126,-95 126,-280 0,-210 12,-242 91,-242 66,0 147,36 235,103 44,34 99,74 121,89 l 41,28 47,-44 c 56,-52 108,-81 187,-101 83,-22 125,-20 151,8 26,27 47,114 60,248 13,120 32,159 118,241 108,103 167,210 149,267 -14,44 -50,51 -258,51 h -193 l -44,63 c -92,130 -192,217 -251,217 -25,0 -41,-10 -72,-42 z m 176,-181 c 74,-82 75,-85 70,-126 -5,-35 -2,-46 17,-66 23,-25 26,-25 183,-25 h 160 l -64,-59 c -102,-93 -131,-162 -145,-351 -3,-47 -10,-89 -14,-93 -21,-23 -143,63 -175,124 -8,14 -28,32 -45,39 -39,16 -79,-1 -171,-71 -109,-84 -202,-149 -213,-149 -7,0 -11,43 -11,133 0,193 -10,212 -162,320 -78,55 -141,113 -132,122 3,2 54,14 115,25 198,37 214,41 229,56 13,13 17,13 40,-2 39,-26 69,-12 103,48 39,70 109,158 126,158 7,0 47,-38 89,-83 z"
       id="path10"
       style="fill:#663399;fill-opacity:1" />
    <path
       d="m 20775,28675 c -16,-15 -25,-35 -25,-56 0,-27 14,-45 103,-128 56,-53 162,-156 235,-229 139,-140 158,-151 210,-123 26,14 38,55 25,84 -52,113 -433,477 -499,477 -14,0 -36,-11 -49,-25 z"
       id="path12"
       style="fill:#663399;fill-opacity:1" />
    <path
       d="m 6895,28593 c -37,-29 -239,-121 -380,-174 -77,-28 -148,-58 -157,-67 -24,-21 -23,-59 2,-72 25,-14 224,32 358,83 179,67 302,183 250,235 -17,17 -49,15 -73,-5 z"
       id="path14"
       style="fill:#663399;fill-opacity:1" />
    <path
       d="m 3275,28461 c -62,-37 -112,-112 -231,-343 -140,-270 -169,-337 -219,-508 -20,-69 -50,-169 -67,-224 l -30,-98 -19,21 c -35,37 -61,36 -165,-8 -129,-56 -233,-81 -525,-130 -453,-76 -548,-119 -505,-233 44,-112 140,-197 345,-300 68,-35 179,-99 246,-144 68,-44 152,-93 188,-110 65,-29 66,-29 61,-64 -2,-19 -18,-132 -34,-250 -51,-357 -51,-538 1,-705 37,-120 79,-141 174,-86 64,37 138,103 322,289 116,117 191,182 343,295 107,80 221,169 252,199 l 57,53 6,-37 c 15,-89 127,-209 281,-301 159,-95 404,-197 585,-242 160,-41 184,-24 194,140 7,119 7,117 44,465 16,151 32,304 36,340 l 6,65 77,69 c 174,155 368,361 429,454 70,107 121,236 130,329 10,111 -19,133 -178,133 -113,0 -216,-19 -430,-79 -138,-38 -212,-53 -335,-66 -88,-10 -190,-25 -229,-35 -38,-10 -73,-15 -77,-12 -4,4 -51,122 -104,262 -234,617 -311,760 -453,852 -55,34 -129,38 -176,9 z m 154,-234 c 94,-140 140,-245 254,-587 41,-124 96,-273 122,-333 41,-93 54,-112 97,-147 28,-22 61,-40 73,-40 12,0 51,13 86,29 78,35 138,48 294,61 141,13 212,28 355,75 140,46 264,75 324,75 48,0 48,0 42,-27 -11,-46 -62,-148 -107,-215 -45,-68 -307,-333 -432,-438 -48,-40 -81,-76 -87,-95 -34,-105 -81,-471 -96,-745 -3,-63 -7,-117 -10,-119 -11,-11 -297,87 -482,166 -191,80 -317,171 -382,272 -34,53 -52,70 -80,76 -37,8 -58,-4 -172,-100 -45,-39 -155,-126 -243,-194 -120,-92 -206,-170 -342,-310 -99,-102 -184,-184 -187,-181 -3,4 -13,49 -22,100 -20,113 -16,244 17,550 27,258 23,242 58,262 21,12 32,27 37,52 9,51 -13,80 -81,105 -74,28 -135,59 -247,127 -51,31 -169,94 -263,139 -111,54 -181,95 -203,117 l -33,35 88,21 c 48,11 178,37 288,57 243,44 337,65 435,101 92,33 190,81 190,93 0,5 13,3 29,-5 35,-17 73,-6 95,28 8,13 53,127 99,253 47,127 97,259 112,295 59,140 238,483 272,522 23,26 45,9 102,-75 z"
       id="path16"
       style="fill:#663399;fill-opacity:1" />
    <path
       d="m 23112,28360 c -120,-87 -158,-234 -150,-579 4,-131 2,-197 -4,-181 -26,69 -103,51 -308,-69 -202,-120 -278,-151 -367,-151 -70,0 -95,-23 -91,-83 3,-40 6,-43 63,-74 106,-58 362,-127 587,-158 l 47,-7 v -82 c -1,-123 21,-202 121,-456 32,-80 66,-173 75,-205 38,-133 105,-138 252,-18 92,75 379,436 433,543 29,57 27,56 47,38 10,-9 47,-19 83,-22 36,-4 115,-14 175,-23 166,-25 324,-23 411,4 81,26 108,50 107,97 -2,81 -91,201 -281,380 -75,71 -138,137 -140,147 -5,26 59,187 109,274 24,42 72,111 106,153 69,82 81,124 44,161 -44,44 -212,34 -414,-25 -67,-20 -155,-45 -195,-55 l -73,-20 -42,29 c -23,16 -80,48 -127,72 -109,54 -152,89 -246,203 -99,119 -119,137 -153,137 -15,0 -47,-13 -69,-30 z m 101,-219 c 71,-110 110,-145 232,-211 100,-53 115,-64 115,-86 0,-29 41,-74 67,-74 52,0 161,26 320,75 170,53 253,74 253,62 0,-3 -18,-37 -40,-75 -45,-78 -94,-204 -105,-269 -4,-26 -12,-43 -20,-43 -22,0 -55,-50 -55,-85 0,-51 54,-119 179,-224 111,-94 221,-203 221,-221 0,-24 -170,-20 -355,10 -96,16 -191,13 -210,-6 -14,-15 -18,-15 -33,-1 -9,9 -29,18 -43,22 -41,10 -82,-34 -253,-269 -146,-201 -239,-316 -255,-316 -4,0 -36,62 -71,138 -133,290 -160,405 -125,541 18,69 18,71 -1,92 -15,17 -27,20 -57,16 -23,-3 -53,1 -74,9 -19,9 -112,26 -207,40 -94,13 -179,27 -189,30 -31,10 253,169 373,209 41,14 68,29 74,42 9,20 11,19 34,-8 27,-32 66,-38 98,-15 18,14 19,29 19,268 0,257 4,295 42,376 8,17 18,32 22,32 3,0 23,-27 44,-59 z"
       id="path18"
       style="fill:#663399;fill-opacity:1" />
    <path
       d="m 26505,27759 c -32,-11 -105,-22 -162,-26 -89,-5 -105,-9 -124,-29 -30,-32 -29,-86 2,-120 24,-26 25,-26 136,-21 107,4 117,7 198,45 89,43 109,66 98,113 -15,62 -48,70 -148,38 z"
       id="path20"
       style="fill:#663399;fill-opacity:1" />
    <path
       d="m 17900,27234 c -344,-30 -600,-84 -943,-198 -493,-163 -911,-355 -1672,-768 -198,-107 -475,-255 -615,-328 -140,-73 -417,-221 -615,-328 -198,-107 -470,-253 -605,-325 -135,-72 -272,-145 -304,-163 l -60,-32 -165,171 c -91,94 -222,220 -291,280 -663,581 -1423,913 -2335,1019 -173,20 -724,17 -905,-5 -918,-114 -1765,-502 -2515,-1151 -153,-133 -432,-417 -556,-566 -449,-541 -762,-1126 -903,-1690 -79,-312 -106,-561 -102,-910 4,-246 32,-535 57,-581 13,-24 50,-40 78,-32 62,16 -9,-47 -306,-273 -1204,-916 -1814,-1410 -2543,-2059 -173,-154 -403,-358 -511,-452 -235,-205 -524,-490 -675,-663 -59,-69 -192,-211 -294,-316 -287,-294 -442,-491 -529,-668 -55,-114 -74,-186 -75,-286 -1,-72 3,-94 26,-143 54,-116 190,-210 350,-242 91,-18 305,-20 464,-4 312,31 828,149 1545,354 1096,313 2486,817 4265,1546 l 291,119 89,-51 c 329,-191 765,-332 1309,-424 829,-139 1783,-38 2640,280 746,278 1329,657 1764,1150 591,669 925,1488 977,2395 3,63 9,118 13,121 3,4 155,106 337,227 959,640 1875,1334 2489,1887 663,596 1218,1231 1509,1728 83,140 199,386 236,497 100,303 69,546 -88,691 -98,91 -222,146 -397,175 -90,14 -350,25 -435,18 z m 433,-274 c 149,-38 251,-113 276,-203 20,-72 10,-185 -28,-296 -123,-363 -447,-869 -836,-1306 -146,-164 -624,-637 -835,-827 -564,-507 -1153,-964 -2010,-1558 -1831,-1270 -3852,-2376 -6345,-3473 -2174,-955 -4071,-1663 -6031,-2251 -721,-216 -989,-272 -1349,-283 -206,-6 -286,5 -346,48 -73,52 -79,151 -16,284 76,160 158,267 377,490 113,116 270,284 350,375 216,248 468,493 960,936 693,623 996,885 1564,1352 338,278 1440,1161 1444,1157 4,-3 42,-145 42,-156 0,-3 -21,-21 -47,-40 -103,-73 -350,-277 -598,-494 -295,-257 -457,-382 -800,-615 -458,-311 -635,-458 -1021,-844 -149,-149 -336,-334 -415,-411 -80,-77 -239,-250 -354,-385 -115,-135 -282,-320 -371,-412 -176,-182 -248,-270 -293,-363 -115,-233 -29,-429 224,-508 58,-18 94,-21 210,-21 262,1 408,40 970,259 110,43 208,85 218,93 24,21 22,74 -3,97 -28,25 -43,21 -409,-116 -419,-157 -621,-205 -823,-197 -122,5 -189,29 -242,89 -111,122 -54,261 226,554 79,83 214,235 302,338 189,224 971,1026 1179,1210 196,173 415,350 609,491 548,402 548,401 943,771 264,248 501,454 509,444 1,-2 19,-58 39,-124 19,-66 38,-127 42,-136 4,-12 -34,-42 -161,-124 -316,-205 -1158,-797 -1497,-1052 -315,-237 -600,-503 -777,-723 -263,-329 -407,-656 -387,-876 8,-79 25,-121 73,-174 72,-79 183,-118 369,-127 157,-7 296,7 652,68 713,121 1253,255 1923,478 758,253 1402,523 2220,932 248,124 500,242 625,292 1859,752 2913,1287 4535,2304 869,545 2247,1441 2685,1746 656,457 1127,873 1541,1362 299,353 405,500 499,698 150,311 144,612 -15,761 -95,89 -194,120 -385,119 -205,0 -404,-42 -825,-172 -1045,-323 -2102,-854 -3134,-1576 -115,-80 -213,-142 -217,-138 -13,15 -109,144 -109,148 0,2 75,43 168,91 650,339 1174,620 1782,957 713,395 1045,562 1429,716 427,173 919,302 1296,340 125,13 308,4 398,-19 z m -685,-470 c 131,-17 215,-72 259,-167 28,-63 23,-226 -11,-338 -71,-235 -203,-448 -490,-789 -434,-518 -893,-924 -1590,-1410 -258,-180 -1561,-1039 -1691,-1115 l -40,-23 35,28 c 56,47 319,275 535,464 318,279 447,379 940,730 355,252 500,366 654,515 305,295 452,568 453,840 1,317 -139,468 -468,507 -173,20 -466,-15 -744,-88 -547,-144 -1107,-435 -1830,-949 -90,-65 -169,-119 -176,-122 -10,-4 -64,67 -64,86 0,5 109,80 241,166 638,415 1041,651 1524,890 458,227 669,310 1390,548 504,167 660,207 874,227 121,10 118,10 199,0 z m -8014,-230 c 39,-14 32,-42 -21,-92 -66,-61 -114,-92 -293,-190 -85,-47 -185,-104 -223,-127 -158,-97 -408,-210 -818,-370 -140,-54 -353,-140 -474,-191 -366,-153 -630,-232 -822,-247 -51,-4 -73,-2 -73,5 0,16 220,202 380,324 129,97 257,169 540,301 127,60 269,147 305,187 11,13 -4,5 -33,-17 -78,-59 -344,-184 -359,-169 -6,6 221,130 359,195 256,122 666,267 719,256 41,-9 185,19 358,69 136,40 200,52 381,69 19,2 38,5 42,5 4,1 18,-2 32,-8 z m 611,-5 c 432,-46 815,-150 1223,-332 56,-26 102,-49 102,-53 0,-7 -96,-87 -495,-409 -363,-294 -672,-514 -930,-662 -382,-218 -928,-420 -2080,-769 -595,-180 -567,-171 -563,-176 6,-5 910,239 1268,342 665,192 976,311 1390,534 517,278 982,611 1354,971 l 136,131 103,-57 c 200,-112 429,-272 622,-434 104,-88 334,-309 376,-363 l 29,-36 -30,-30 c -57,-58 -32,-159 50,-204 39,-21 81,-19 131,6 l 30,15 45,-57 c 69,-86 263,-382 340,-517 171,-303 319,-661 417,-1012 l 35,-123 -67,-48 c -106,-78 -142,-101 -457,-293 -1098,-668 -1901,-1100 -2786,-1500 -413,-186 -798,-348 -1833,-769 -335,-137 -695,-284 -800,-328 -739,-310 -1108,-462 -1120,-462 -38,0 -310,398 -444,651 -130,247 -281,619 -281,693 0,32 -5,47 -20,57 -23,17 -75,191 -189,644 -93,368 -114,443 -131,472 -23,36 -71,57 -126,56 l -50,-1 3,51 c 38,616 208,1174 523,1717 64,110 214,339 269,410 l 19,24 43,-29 c 37,-27 52,-30 128,-33 143,-6 325,42 686,180 287,109 412,151 840,283 204,63 426,132 495,155 656,218 1091,451 1413,760 62,59 70,71 61,87 -6,10 -17,19 -25,21 -8,1 -61,-34 -119,-79 -248,-193 -475,-334 -775,-480 -314,-153 -577,-251 -1220,-454 -203,-64 -501,-166 -661,-226 -415,-155 -617,-210 -718,-195 -46,7 -106,39 -106,57 0,23 207,262 406,469 l 71,73 69,-2 c 205,-7 552,84 944,246 85,35 308,126 495,202 545,222 762,323 973,455 65,40 162,99 217,131 153,90 242,186 221,240 -5,13 21,15 177,15 100,0 245,-7 322,-15 z m 6000,-665 c 137,-20 232,-85 280,-192 25,-55 29,-75 29,-158 -1,-121 -20,-195 -89,-335 -88,-181 -226,-344 -455,-540 -148,-127 -292,-233 -625,-460 -448,-306 -546,-383 -965,-760 -421,-379 -575,-506 -860,-707 -251,-178 -799,-526 -1445,-918 -580,-353 -955,-593 -972,-624 -10,-18 -690,-354 -983,-486 -293,-133 -642,-282 -646,-277 -2,2 42,31 98,65 57,34 162,99 233,144 107,69 130,87 130,107 0,60 -17,53 -381,-151 -721,-404 -1042,-574 -1264,-670 -274,-118 -330,-145 -330,-163 0,-39 -986,-487 -1555,-707 -807,-312 -1561,-531 -2299,-668 -580,-107 -923,-139 -1041,-96 -112,41 -157,103 -156,220 1,137 65,287 230,533 137,204 251,343 421,514 177,177 321,298 680,569 151,114 397,302 545,417 516,399 828,634 835,626 10,-12 94,-243 89,-246 -2,-2 -119,-82 -259,-177 -508,-345 -670,-474 -986,-787 -226,-222 -304,-313 -389,-449 -100,-159 -139,-295 -133,-463 3,-102 3,-103 36,-132 41,-36 64,-37 242,-4 741,138 1508,370 2540,770 418,162 1573,624 2245,898 1180,481 1779,748 2560,1142 1054,532 1803,973 2364,1395 182,137 293,228 806,663 371,314 717,688 807,870 80,161 110,312 90,449 -37,251 -206,382 -492,381 -134,0 -241,-21 -400,-79 -118,-44 -437,-202 -640,-318 -125,-72 -418,-263 -518,-338 l -44,-33 -19,24 c -11,13 -18,29 -16,34 4,13 233,172 447,310 552,358 997,575 1438,703 335,97 616,133 817,104 z m -958,-685 c 97,-29 135,-80 135,-179 0,-106 -62,-245 -179,-401 -96,-128 -363,-393 -608,-601 -115,-98 -280,-239 -365,-313 -85,-74 -163,-141 -172,-149 -15,-12 -18,-12 -22,-1 -102,329 -172,511 -289,752 l -81,169 24,19 c 370,286 1042,639 1337,703 90,19 158,19 220,1 z m -1393,-3157 c -37,-291 -59,-405 -110,-590 -86,-315 -210,-611 -363,-871 -46,-77 -61,-93 -153,-162 -155,-116 -424,-293 -595,-390 -125,-71 -153,-91 -153,-109 0,-27 18,-46 44,-46 42,0 369,188 544,311 45,32 82,56 82,52 0,-15 -164,-206 -275,-321 -420,-436 -946,-758 -1603,-983 -412,-140 -844,-235 -1249,-274 -218,-21 -623,-21 -838,0 -172,16 -475,62 -487,74 -4,3 122,40 280,80 674,173 998,280 1681,555 611,246 1119,500 1502,751 71,47 132,92 136,101 8,22 -17,68 -40,72 -9,2 -65,-26 -124,-61 -716,-429 -1651,-866 -2373,-1107 -129,-43 -381,-121 -560,-174 -179,-52 -397,-116 -485,-142 l -159,-47 -71,18 c -180,45 -475,144 -604,202 l -56,25 85,35 c 47,19 274,118 505,218 1679,731 3088,1435 4426,2211 289,167 724,429 885,532 60,39 114,71 121,71 8,1 10,-10 7,-31 z M 5838,20435 c 132,-302 316,-624 490,-858 36,-49 61,-92 56,-96 -29,-26 -792,-294 -1131,-396 -342,-104 -828,-227 -1020,-260 -41,-6 -43,-5 -43,17 0,37 27,133 61,214 34,82 110,200 202,313 93,115 476,500 617,620 154,132 713,551 722,543 3,-4 24,-48 46,-97 z"
       id="path22"
       style="fill:#663399;fill-opacity:1" />
    <path
       d="m 10630,26073 c 0,-60 -50,-150 -121,-219 -79,-76 -644,-529 -800,-641 -257,-184 -620,-386 -898,-500 -117,-48 -150,-70 -136,-93 3,-6 15,-10 26,-10 33,0 213,74 384,158 370,182 611,345 1040,703 271,226 442,393 480,468 25,50 47,171 31,171 -3,0 -6,-17 -6,-37 z"
       id="path24"
       style="fill:#663399;fill-opacity:1" />
    <path
       d="m 11928,25424 c -223,-229 -466,-424 -808,-649 -103,-68 -259,-175 -349,-239 -346,-246 -522,-329 -756,-355 l -80,-8 100,-2 c 214,-2 392,69 745,299 91,59 242,154 335,210 470,283 740,499 914,730 64,86 73,113 42,130 -17,8 -36,-7 -143,-116 z"
       id="path26"
       style="fill:#663399;fill-opacity:1" />
    <path
       d="m 11870,24314 c -142,-126 -367,-266 -548,-343 -84,-35 -54,-36 50,-1 108,36 285,120 378,180 82,53 237,178 244,196 8,21 -4,44 -23,43 -9,0 -54,-34 -101,-75 z"
       id="path28"
       style="fill:#663399;fill-opacity:1" />
    <path
       d="m 12114,23604 c -746,-522 -922,-616 -2074,-1119 -168,-73 -408,-180 -535,-238 -409,-185 -485,-214 -1390,-518 -780,-261 -941,-309 -1315,-387 -89,-19 2,-12 107,9 223,42 541,128 938,254 94,30 301,93 460,140 563,167 789,247 1192,419 148,62 396,166 553,231 810,333 1168,508 1620,792 241,152 682,480 697,519 6,16 -14,44 -31,44 -7,0 -107,-66 -222,-146 z"
       id="path30"
       style="fill:#663399;fill-opacity:1" />
    <path
       d="m 13198,23600 c -417,-331 -1168,-825 -1771,-1164 -114,-64 -138,-82 -135,-98 7,-50 28,-45 214,57 548,300 1077,660 1549,1056 170,142 253,218 240,218 -5,0 -49,-31 -97,-69 z"
       id="path32"
       style="fill:#663399;fill-opacity:1" />
    <path
       d="m 6615,22648 c -82,-51 -263,-136 -380,-178 -125,-44 -114,-52 23,-15 198,53 442,166 442,205 0,29 -27,25 -85,-12 z"
       id="path34"
       style="fill:#663399;fill-opacity:1" />
    <path
       d="m 6713,21323 c 9,-2 23,-2 30,0 6,3 -1,5 -18,5 -16,0 -22,-2 -12,-5 z"
       id="path36"
       style="fill:#663399;fill-opacity:1" />
    <path
       d="m 6643,21313 c 9,-2 25,-2 35,0 9,3 1,5 -18,5 -19,0 -27,-2 -17,-5 z"
       id="path38"
       style="fill:#663399;fill-opacity:1" />
    <path
       d="m 6563,21303 c 9,-2 25,-2 35,0 9,3 1,5 -18,5 -19,0 -27,-2 -17,-5 z"
       id="path40"
       style="fill:#663399;fill-opacity:1" />
    <path
       d="m 9420,21249 c -30,-5 -131,-27 -225,-49 -93,-21 -191,-42 -217,-46 -27,-3 -48,-10 -48,-15 0,-12 118,-2 265,23 197,33 298,48 328,48 24,0 28,4 25,23 -4,26 -40,31 -128,16 z"
       id="path42"
       style="fill:#663399;fill-opacity:1" />
    <path
       d="m 32,26835 c -36,-26 -27,-82 17,-112 93,-63 265,-80 436,-44 122,26 166,43 189,74 17,23 17,29 6,56 -17,41 -44,47 -140,27 -92,-18 -275,-21 -365,-5 -33,5 -73,12 -90,15 -19,3 -38,-1 -53,-11 z"
       id="path44"
       style="fill:#663399;fill-opacity:1" />
    <path
       d="m 28664,26598 c -54,-59 -154,-201 -154,-219 0,-4 -11,3 -25,16 -30,31 -27,31 -259,-4 -213,-32 -218,-35 -230,-115 -13,-88 38,-164 188,-278 106,-82 120,-112 111,-249 -10,-141 0,-205 36,-242 27,-27 34,-29 76,-22 68,10 139,45 220,108 40,31 91,68 112,83 l 40,26 48,-42 c 61,-54 150,-96 231,-109 121,-19 141,9 162,221 16,159 28,185 134,297 134,142 174,232 123,279 -22,21 -32,22 -228,22 h -204 l -32,48 c -90,131 -211,242 -264,242 -20,0 -42,-16 -85,-62 z m 183,-164 c 74,-82 78,-88 75,-128 -3,-31 2,-49 16,-66 20,-25 21,-25 184,-22 l 163,3 -71,-68 c -39,-37 -78,-82 -87,-98 -26,-51 -45,-136 -52,-225 -8,-105 -12,-120 -34,-120 -32,0 -109,58 -150,114 -36,48 -46,56 -74,56 -41,0 -98,-33 -206,-119 -80,-63 -139,-101 -158,-101 -4,0 -8,60 -9,133 0,186 -7,200 -157,311 -99,72 -149,121 -135,130 2,1 75,15 163,31 112,21 164,34 177,47 17,17 20,17 34,3 9,-8 29,-15 45,-15 24,0 34,8 57,46 38,64 121,174 132,174 4,0 44,-39 87,-86 z"
       id="path46"
       style="fill:#663399;fill-opacity:1" />
    <path
       d="m 6239,26458 c -47,-39 -23,-79 58,-97 32,-8 112,-35 178,-61 230,-91 320,-93 340,-10 9,40 -14,59 -95,79 -41,10 -130,35 -197,54 -140,41 -259,56 -284,35 z"
       id="path48"
       style="fill:#663399;fill-opacity:1" />
    <path
       d="m 21046,26278 c -135,-140 -225,-247 -233,-276 -8,-34 26,-76 66,-80 41,-4 116,56 284,226 129,131 136,147 91,201 -21,25 -33,31 -67,31 -39,0 -46,-5 -141,-102 z"
       id="path50"
       style="fill:#663399;fill-opacity:1" />
    <path
       d="m 25272,26138 c -29,-29 2,-71 98,-135 25,-17 54,-40 64,-52 38,-42 106,-16 106,42 0,33 -37,62 -152,116 -96,45 -99,46 -116,29 z"
       id="path52"
       style="fill:#663399;fill-opacity:1" />
    <path
       d="m 23555,26103 c -394,-23 -729,-71 -1063,-154 -378,-92 -424,-121 -428,-267 l -1,-63 -169,-73 c -500,-216 -933,-485 -1301,-808 -135,-118 -389,-380 -504,-518 -636,-763 -1058,-1712 -1203,-2705 -13,-90 -19,-143 -42,-365 -9,-90 -9,-444 0,-565 81,-1119 563,-2076 1431,-2842 523,-462 1223,-856 1950,-1098 600,-200 1146,-285 1745,-272 493,11 891,80 1360,237 1116,371 2193,1182 2909,2190 335,471 574,937 746,1455 133,399 203,745 235,1155 9,117 6,541 -5,620 -2,19 -11,96 -20,170 -164,1366 -1059,2537 -2482,3249 -753,376 -1594,596 -2483,651 -149,9 -547,11 -675,3 z m 895,-398 c 156,-15 419,-50 467,-61 21,-6 20,-7 -10,-33 -51,-44 -116,-86 -202,-129 -161,-80 -314,-124 -710,-202 -374,-73 -565,-134 -725,-230 -198,-119 -271,-216 -352,-464 -48,-148 -91,-217 -204,-325 -200,-193 -497,-341 -773,-387 -237,-39 -488,9 -638,122 -17,13 -39,24 -49,24 -25,0 -54,-30 -54,-56 0,-53 167,-156 315,-195 114,-30 320,-30 465,0 324,67 638,233 829,437 105,111 126,151 221,409 63,171 133,262 268,349 140,91 296,143 649,216 540,113 809,220 1007,400 l 53,49 114,-23 c 373,-78 827,-222 1141,-363 l 57,-25 -6,-127 c -6,-143 -20,-218 -63,-329 -38,-101 -14,-67 60,83 63,128 90,214 90,290 v 47 l 163,-84 c 231,-120 247,-131 247,-171 0,-48 -28,-280 -45,-377 -59,-325 -184,-754 -279,-955 -101,-214 -235,-367 -393,-448 -149,-77 -312,-134 -593,-207 -146,-38 -312,-85 -370,-105 -244,-85 -395,-197 -471,-350 -36,-72 -42,-93 -43,-152 -2,-104 35,-170 185,-330 144,-153 189,-231 189,-323 0,-72 -29,-158 -75,-220 -40,-55 -267,-272 -346,-331 -138,-103 -329,-193 -889,-417 -417,-166 -477,-193 -868,-381 -693,-334 -1038,-460 -1407,-513 -149,-21 -580,-15 -820,12 -145,16 -294,25 -545,30 -375,8 -406,12 -522,71 -32,16 -76,45 -97,64 -26,24 -48,35 -68,35 -29,0 -30,2 -46,78 -61,288 -76,467 -72,867 3,336 10,431 56,720 19,120 53,292 64,323 3,9 21,4 65,-18 33,-17 86,-37 117,-45 77,-20 264,-28 388,-17 99,9 99,9 30,11 -152,3 -343,48 -438,104 -24,14 -61,45 -82,68 -34,38 -37,45 -32,84 4,23 34,127 68,231 222,684 612,1381 1053,1884 49,55 92,100 97,100 5,0 9,-10 9,-23 0,-13 13,-44 29,-69 52,-83 186,-126 345,-113 82,8 124,30 112,62 -3,8 -6,18 -6,23 0,12 -22,18 -151,39 -63,11 -126,24 -141,30 -43,16 -62,54 -55,110 10,85 39,130 145,222 145,127 163,140 345,244 93,53 279,168 414,256 135,89 301,190 369,226 116,60 128,65 170,58 35,-5 71,1 173,31 139,39 170,40 228,4 45,-27 65,-62 65,-114 0,-111 -93,-219 -312,-365 -290,-192 -579,-311 -755,-311 -44,0 -45,1 -34,23 7,12 60,69 118,127 102,101 218,189 359,271 84,49 74,50 -20,3 -180,-91 -345,-211 -476,-348 -101,-105 -105,-127 -27,-138 243,-38 856,222 1115,472 148,143 185,296 101,417 -35,50 -48,42 139,77 226,42 451,70 685,86 185,12 690,4 885,-15 z m 2553,-864 c 75,-49 180,-123 234,-163 111,-83 296,-235 301,-248 4,-9 -69,-173 -140,-314 -99,-197 -204,-339 -330,-444 -43,-35 -78,-70 -78,-78 0,-30 32,-26 88,11 214,141 388,346 519,613 l 56,113 45,-43 c 63,-61 250,-267 317,-348 l 57,-69 -32,-55 c -85,-150 -228,-303 -520,-559 -457,-401 -576,-548 -618,-759 -13,-68 -14,-92 -4,-151 20,-116 66,-169 162,-187 140,-27 342,43 733,254 99,53 182,94 187,91 4,-2 10,-18 14,-35 13,-68 94,-107 187,-90 99,19 286,122 461,255 l 46,36 31,-130 c 17,-72 31,-135 31,-141 0,-18 -267,-187 -395,-250 -66,-33 -194,-90 -285,-128 -108,-45 -220,-101 -325,-164 -196,-117 -243,-141 -339,-173 -127,-43 -205,-31 -273,41 -38,40 -56,42 -149,13 -149,-46 -261,-115 -519,-324 -328,-264 -453,-327 -675,-342 -97,-6 -110,-12 -110,-50 0,-43 24,-53 124,-53 220,0 369,74 746,370 202,159 340,241 454,272 42,11 47,10 68,-9 70,-63 166,-83 287,-59 106,22 216,71 425,189 93,53 246,131 340,173 266,119 469,218 562,275 47,28 87,49 89,47 4,-4 21,-142 28,-231 4,-47 3,-49 -68,-130 -117,-132 -382,-396 -485,-482 -52,-43 -180,-135 -285,-204 -104,-68 -233,-156 -285,-194 -104,-76 -264,-233 -294,-289 -23,-43 -16,-81 20,-105 23,-14 32,-15 72,-4 65,17 243,104 418,203 448,255 626,332 814,354 l 59,6 -6,-38 c -3,-22 -18,-100 -33,-175 -31,-154 -46,-183 -185,-347 -92,-109 -607,-620 -780,-773 -603,-536 -927,-733 -1781,-1084 -576,-237 -947,-355 -1322,-422 -191,-34 -447,-39 -529,-10 -154,54 -199,151 -131,281 25,46 88,117 258,291 135,138 245,260 273,303 110,165 114,291 12,381 -56,49 -93,61 -189,61 -191,0 -524,-128 -961,-371 -268,-148 -421,-210 -685,-278 -285,-73 -688,-138 -1155,-186 -137,-14 -349,-37 -470,-50 -271,-30 -426,-39 -485,-28 -39,7 -45,12 -48,35 -4,32 -26,52 -47,44 -26,-9 -49,-75 -36,-102 43,-95 308,-106 956,-40 688,71 919,105 1307,191 306,68 422,108 558,189 376,226 722,384 958,437 94,21 106,22 144,9 55,-20 83,-57 74,-103 -11,-61 -66,-128 -272,-332 -298,-297 -378,-417 -379,-565 0,-91 18,-134 87,-203 57,-57 164,-111 263,-132 155,-33 397,-13 672,55 516,126 1026,312 1708,620 514,233 681,342 1215,799 218,187 443,401 665,633 88,91 161,165 163,164 1,-2 -2,-14 -7,-27 -6,-13 -30,-78 -55,-144 -157,-426 -406,-882 -698,-1277 -62,-84 -106,-130 -196,-206 -441,-369 -897,-631 -1477,-847 -250,-93 -485,-161 -1000,-291 -574,-144 -699,-177 -1006,-270 -293,-88 -400,-112 -536,-121 -82,-5 -111,-3 -146,11 -113,43 -104,157 36,449 59,125 69,151 60,170 -13,28 -74,44 -220,57 -359,32 -826,-105 -1542,-451 l -204,-99 -122,64 c -244,129 -619,373 -593,386 7,4 51,10 98,13 98,8 197,32 223,54 19,18 22,55 7,84 -13,23 -41,24 -138,4 -41,-9 -139,-20 -220,-25 l -146,-9 -56,45 c -266,217 -559,531 -760,814 -70,99 -190,289 -190,301 0,4 71,5 158,2 86,-2 378,0 647,6 528,10 536,11 710,71 178,61 309,90 410,90 52,0 117,-5 145,-11 45,-10 54,-9 71,7 12,10 19,30 19,51 0,50 -43,65 -195,71 -146,5 -251,-14 -480,-89 -173,-56 -277,-72 -425,-67 -52,2 -257,-1 -455,-5 -335,-8 -520,-2 -654,19 -38,6 -40,8 -86,108 -81,173 -195,477 -195,520 0,4 15,-4 33,-17 54,-41 133,-76 219,-98 73,-19 127,-22 463,-29 222,-5 457,-16 565,-26 263,-25 676,-26 825,-1 376,63 703,187 1485,562 481,230 675,315 1020,445 324,123 544,236 699,360 131,106 324,295 358,352 46,76 77,203 71,294 -8,119 -43,180 -193,331 -148,150 -180,203 -179,298 0,70 17,107 77,172 76,83 230,172 400,232 48,17 212,65 365,107 386,106 497,148 640,247 166,114 303,311 415,597 127,321 200,686 214,1073 3,92 9,167 13,167 4,0 68,-40 143,-89 z m 1241,-1210 c 164,-247 295,-509 382,-763 l 23,-67 -87,-64 c -204,-150 -350,-230 -412,-225 l -35,3 v 68 c 0,71 -15,97 -55,97 -51,0 -220,-77 -417,-191 -214,-124 -370,-187 -482,-195 -107,-8 -151,32 -151,134 1,155 127,342 381,567 339,300 604,570 696,711 36,55 51,70 60,62 7,-6 51,-67 97,-137 z m 563,-2073 c -4,-90 -9,-184 -13,-210 l -7,-48 h -59 c -166,0 -420,-90 -669,-237 -190,-112 -170,-93 61,59 213,139 306,216 520,432 91,91 167,166 169,166 2,0 1,-73 -2,-162 z m -1697,-3398 c -271,-240 -432,-366 -685,-534 -238,-159 -347,-222 -600,-348 -547,-273 -1097,-431 -1673,-479 -178,-15 -633,-6 -790,15 -393,53 -804,154 -1169,287 -208,76 -503,204 -503,219 0,9 396,187 592,266 388,158 641,223 888,231 134,5 261,-5 277,-21 2,-2 -24,-53 -57,-114 -75,-135 -99,-196 -107,-271 -12,-124 35,-219 134,-267 53,-27 67,-29 163,-28 160,1 345,42 770,168 277,83 682,186 1020,261 325,71 483,113 695,182 329,107 672,253 935,397 74,41 140,75 145,75 6,1 -10,-17 -35,-39 z"
       id="path54"
       style="fill:#663399;fill-opacity:1" />
    <path
       d="m 25753,24933 c -14,-12 -27,-45 -38,-98 -113,-524 -544,-966 -1296,-1329 -259,-125 -455,-183 -593,-174 -84,6 -141,30 -161,69 -21,41 -19,59 20,153 41,98 43,133 14,194 -57,117 -201,133 -434,45 -129,-48 -539,-234 -630,-285 -49,-28 -175,-108 -280,-177 -226,-151 -302,-197 -538,-325 -98,-53 -282,-160 -410,-238 -478,-291 -572,-339 -712,-368 -117,-24 -248,10 -306,79 -31,36 -31,36 -15,5 21,-43 75,-88 130,-109 37,-14 67,-17 153,-13 90,4 126,11 218,42 106,36 265,113 397,194 106,65 318,181 622,342 307,161 330,175 581,335 218,138 240,150 496,266 320,144 381,169 462,185 61,13 79,13 112,2 37,-12 40,-16 43,-55 2,-30 -6,-60 -29,-110 -54,-115 -43,-198 35,-276 118,-119 331,-113 685,20 685,255 1235,707 1471,1206 75,159 123,385 89,414 -27,22 -64,25 -86,6 z"
       id="path56"
       style="fill:#663399;fill-opacity:1" />
    <path
       d="m 20456,23078 c -88,-159 -127,-284 -125,-407 l 2,-76 8,90 c 9,110 46,228 110,358 55,109 58,129 5,35 z"
       id="path58"
       style="fill:#663399;fill-opacity:1" />
    <path
       d="m 22160,21609 c -294,-38 -899,-229 -1244,-394 -120,-57 -210,-137 -221,-197 -16,-84 26,-157 112,-198 90,-43 310,-37 437,11 27,10 53,24 58,31 14,23 8,65 -12,83 -19,18 -26,18 -93,5 -99,-18 -263,-24 -308,-11 -98,29 -69,67 126,161 272,133 861,330 1120,376 95,17 244,18 314,3 135,-29 182,-125 140,-287 -54,-214 -222,-386 -471,-482 -254,-98 -556,-152 -958,-170 -118,-5 -336,-15 -485,-22 -355,-17 -611,-17 -700,1 -148,29 -246,85 -266,151 -33,109 108,261 315,341 95,36 106,44 106,74 0,45 -24,51 -101,26 -209,-67 -377,-189 -414,-299 -46,-141 16,-275 160,-343 136,-64 293,-84 595,-76 118,4 370,11 560,16 190,6 399,15 465,21 872,80 1335,378 1339,860 1,85 -2,101 -27,152 -44,89 -114,138 -236,164 -72,15 -208,16 -311,3 z"
       id="path60"
       style="fill:#663399;fill-opacity:1" />
    <path
       d="m 26185,20371 c -95,-45 -213,-124 -345,-231 -152,-123 -213,-202 -241,-314 -23,-94 31,-165 150,-200 170,-50 380,16 706,220 77,48 192,118 255,154 123,71 137,88 106,136 -11,16 -26,24 -45,24 -40,0 -218,-90 -426,-217 -189,-114 -314,-166 -464,-193 -150,-27 -192,26 -115,143 58,88 308,286 459,363 50,25 94,50 99,54 15,15 8,74 -10,87 -26,19 -41,16 -129,-26 z"
       id="path62"
       style="fill:#663399;fill-opacity:1" />
    <path
       d="m 1547,25048 c -13,-18 -36,-54 -50,-79 -41,-73 -136,-196 -267,-348 -127,-148 -139,-172 -100,-211 33,-33 63,-25 132,34 167,143 432,513 411,574 -23,66 -88,81 -126,30 z"
       id="path64"
       style="fill:#663399;fill-opacity:1" />
    <path
       d="m 4732,25057 c -42,-44 -31,-72 93,-232 123,-158 170,-249 190,-368 9,-52 36,-77 85,-77 28,0 45,7 61,23 19,20 20,30 16,97 -9,139 -55,228 -216,425 -128,155 -128,155 -170,155 -26,0 -44,-7 -59,-23 z"
       id="path66"
       style="fill:#663399;fill-opacity:1" />
    <path
       d="m 2892,24582 c -20,-20 -69,-194 -109,-382 -28,-138 -42,-364 -24,-398 28,-52 119,-48 139,6 6,15 16,70 22,122 13,112 49,298 91,462 16,64 29,124 29,133 0,9 -13,30 -29,46 -35,35 -90,40 -119,11 z"
       id="path68"
       style="fill:#663399;fill-opacity:1" />
    <path
       d="m 16097,19078 c -50,-55 -116,-142 -147,-193 -13,-22 -25,-42 -26,-43 -1,-2 -15,6 -31,18 l -29,21 -204,-30 c -235,-35 -241,-37 -248,-123 -8,-95 27,-147 175,-265 51,-41 100,-87 108,-103 12,-22 15,-63 14,-173 0,-79 3,-157 7,-173 11,-46 42,-74 83,-74 78,1 154,41 321,170 36,27 68,50 71,50 3,0 26,-19 50,-41 57,-53 143,-94 230,-110 121,-21 144,11 164,226 8,82 23,155 38,183 7,12 51,62 98,110 105,108 159,204 140,251 -20,46 -45,51 -255,51 h -194 l -42,58 c -109,145 -206,232 -261,232 -13,0 -38,-17 -62,-42 z m 178,-201 c 55,-64 60,-73 60,-118 0,-81 8,-84 195,-84 88,0 160,-2 160,-5 0,-3 -23,-25 -51,-49 -105,-90 -132,-152 -149,-335 -6,-61 -14,-114 -18,-118 -18,-18 -112,44 -162,108 -40,51 -56,64 -78,64 -35,0 -113,-46 -216,-128 -43,-35 -96,-72 -117,-83 l -39,-19 v 129 c 0,192 -13,219 -150,316 -121,86 -167,145 -113,145 8,0 78,12 156,27 97,18 144,31 155,44 14,17 16,16 42,-3 40,-29 62,-17 108,60 22,37 57,86 77,109 35,41 37,42 58,26 12,-9 49,-48 82,-86 z"
       id="path70"
       style="fill:#663399;fill-opacity:1" />
    <path
       d="m 12815,17894 c -131,-68 -238,-206 -311,-402 -28,-73 -30,-114 -8,-136 16,-16 70,-21 90,-8 6,4 32,50 57,102 56,117 113,195 211,287 82,76 90,96 54,137 -31,33 -57,39 -93,20 z"
       id="path72"
       style="fill:#663399;fill-opacity:1" />
    <path
       d="m 8271,17134 c -12,-15 -21,-31 -21,-36 0,-25 37,-71 123,-155 77,-76 100,-93 125,-93 52,0 86,53 59,93 -56,84 -204,217 -242,217 -14,0 -32,-11 -44,-26 z"
       id="path74"
       style="fill:#663399;fill-opacity:1" />
    <path
       d="m 10732,17025 c -52,-37 -143,-206 -196,-366 -45,-135 -68,-281 -64,-394 l 3,-90 -60,-1 c -33,-1 -89,-9 -125,-19 -117,-30 -354,-107 -418,-136 -136,-61 -208,-139 -180,-196 26,-53 230,-146 417,-190 58,-14 115,-29 127,-33 30,-12 45,-94 51,-275 5,-147 -3,-239 -39,-437 -12,-66 -11,-68 12,-93 19,-20 32,-25 60,-23 33,3 40,11 125,140 136,204 199,284 303,383 77,74 112,114 168,194 2,2 70,-13 152,-33 241,-59 538,-96 775,-96 106,0 119,2 138,21 19,19 21,30 16,87 -4,50 -15,84 -46,146 -49,97 -155,247 -232,331 l -55,60 8,52 c 12,79 42,149 122,284 81,137 167,257 245,343 57,63 64,96 30,140 -37,47 -59,38 -307,-126 -127,-84 -275,-181 -329,-215 -55,-34 -121,-81 -147,-104 -26,-23 -48,-40 -49,-38 -2,2 -13,31 -26,64 -50,126 -171,375 -209,432 -45,66 -161,179 -199,194 -33,12 -45,11 -71,-6 z m 161,-333 c 20,-37 54,-113 76,-170 58,-144 105,-236 148,-283 33,-36 41,-40 77,-38 23,2 52,0 64,-5 33,-11 118,33 267,138 66,46 121,83 123,81 2,-2 -3,-14 -12,-27 -27,-42 -78,-180 -93,-255 -10,-51 -23,-82 -39,-98 -28,-28 -30,-45 -8,-88 22,-43 61,-92 170,-214 83,-94 153,-197 141,-209 -9,-9 -357,17 -492,37 -71,10 -197,35 -279,56 l -149,37 -31,-35 c -17,-19 -49,-43 -71,-54 -58,-29 -156,-131 -262,-274 l -93,-124 v 79 c -1,104 -7,171 -27,269 -9,44 -17,103 -17,131 -1,81 -10,88 -196,135 -175,45 -290,81 -290,91 0,19 182,82 413,144 70,18 144,42 165,53 42,21 79,58 68,68 -3,4 7,12 24,19 22,10 32,22 37,44 4,21 14,35 29,41 29,10 31,34 5,48 -17,10 -18,15 -5,93 23,143 92,352 141,428 l 16,24 33,-38 c 18,-20 48,-67 67,-104 z"
       id="path76"
       style="fill:#663399;fill-opacity:1" />
    <path
       d="m 28968,16161 c -111,-36 -233,-114 -380,-243 -240,-211 -447,-434 -549,-589 -47,-70 -56,-79 -83,-79 -51,0 -278,36 -500,80 -325,63 -512,83 -1176,127 -377,25 -1145,25 -1430,0 -626,-54 -1153,-138 -2000,-318 -619,-132 -810,-185 -1130,-314 -426,-173 -1142,-541 -1815,-935 -1246,-730 -2385,-1738 -3443,-3048 -63,-78 -120,-141 -126,-138 -51,22 -286,93 -400,121 -170,41 -289,62 -486,84 l -149,16 76,115 c 100,150 143,233 136,260 -7,27 -50,60 -78,60 -12,0 -29,-8 -37,-17 -18,-21 -150,-237 -178,-293 -21,-42 -26,-95 -10,-105 26,-16 -3,-20 -168,-22 -759,-10 -1588,-289 -2176,-732 -746,-563 -1277,-1521 -1340,-2416 -3,-44 -8,-163 -11,-265 -9,-300 -16,-387 -55,-685 -30,-230 -49,-407 -57,-550 -12,-190 -8,-459 7,-545 24,-144 76,-270 145,-356 l 25,-30 -93,-59 c -219,-141 -391,-283 -782,-649 C 9962,3941 9353,3431 8815,3054 7907,2417 7022,2026 6165,1881 c -507,-86 -1095,-86 -1520,0 -377,76 -687,227 -914,444 -192,185 -312,395 -367,647 -20,92 -24,320 -6,403 99,458 407,832 1019,1238 71,46 277,173 458,282 736,441 1062,685 1332,999 402,467 482,844 247,1172 -86,122 -263,238 -420,278 -212,54 -496,34 -766,-55 -48,-15 -167,-65 -265,-110 -347,-158 -494,-188 -632,-128 -129,55 -189,189 -251,559 -45,265 -106,435 -213,595 -86,127 -268,293 -414,376 -32,18 -62,39 -68,46 -5,7 -68,40 -140,74 -154,73 -220,114 -274,169 -103,107 -83,248 60,420 55,67 62,102 20,108 -28,4 -84,-53 -156,-160 -121,-177 -117,-350 11,-487 35,-38 54,-67 54,-83 0,-36 27,-55 140,-104 134,-57 278,-137 336,-188 119,-103 149,-134 181,-184 72,-112 107,-253 118,-473 14,-305 16,-348 26,-414 24,-176 72,-286 167,-387 75,-79 138,-113 238,-128 118,-18 271,3 848,116 546,107 729,118 876,53 91,-41 130,-99 130,-197 0,-77 -21,-146 -83,-266 C 5831,6289 5707,6127 5504,5930 5279,5712 5106,5586 4575,5255 3867,4811 3503,4542 3179,4220 2659,3703 2338,3101 2313,2595 c -13,-248 44,-483 165,-688 190,-320 476,-570 877,-763 187,-90 337,-145 530,-194 517,-132 971,-134 1703,-9 321,54 525,107 1142,292 1015,306 1363,368 2725,482 1165,97 1698,165 2245,286 543,120 1035,336 1620,711 621,399 1134,841 1696,1463 151,167 155,176 105,226 -56,56 -50,60 -424,-314 -560,-563 -848,-798 -1487,-1219 -331,-218 -390,-254 -570,-343 -353,-176 -758,-304 -1255,-395 -427,-79 -974,-143 -1895,-225 -1366,-121 -1777,-189 -2641,-439 -123,-36 -323,-97 -444,-136 -121,-39 -269,-84 -330,-100 -211,-54 -672,-134 -1000,-172 -68,-8 -229,-13 -420,-13 -272,1 -326,3 -444,23 -434,72 -817,221 -1123,438 -122,87 -321,289 -397,403 -246,371 -270,685 -90,1151 165,427 458,832 867,1203 281,254 473,392 1062,762 547,343 762,492 970,672 315,272 560,600 656,878 24,69 28,96 28,195 1,100 -2,122 -22,165 -79,172 -278,239 -638,215 -79,-5 -163,-12 -187,-15 l -42,-5 32,15 c 69,32 283,67 413,67 143,1 229,-16 320,-61 214,-106 323,-267 323,-476 0,-245 -129,-472 -458,-800 -264,-265 -494,-430 -1125,-810 -650,-391 -864,-546 -1124,-810 -275,-280 -437,-560 -502,-875 -24,-110 -24,-330 -1,-455 69,-379 302,-708 677,-955 236,-155 539,-275 829,-330 861,-162 1831,-32 2776,370 1015,432 1975,1113 3233,2293 425,398 608,556 817,704 155,109 377,239 451,263 83,26 154,62 215,106 128,93 617,279 1409,536 312,101 430,143 443,159 10,12 17,38 17,61 0,32 -7,47 -34,74 -22,22 -44,34 -61,34 -52,0 -1206,-359 -1399,-436 -15,-6 -12,3 14,47 17,30 114,221 215,425 245,498 349,681 491,870 245,326 504,512 823,591 92,23 127,27 266,27 92,0 185,-5 220,-12 92,-20 235,-64 235,-73 0,-40 -136,-321 -271,-561 -117,-207 -195,-362 -240,-478 l -37,-95 -40,3 c -51,4 -82,-23 -82,-71 0,-26 10,-42 46,-77 25,-25 89,-101 142,-170 53,-69 135,-164 182,-211 l 85,-86 -350,-219 c -785,-491 -1301,-852 -1751,-1226 l -142,-118 -45,6 c -39,6 -49,3 -70,-18 -13,-13 -34,-54 -46,-90 -16,-49 -33,-76 -61,-102 -53,-48 -62,-67 -49,-104 6,-17 17,-33 25,-36 11,-4 13,-22 8,-93 -13,-186 41,-313 160,-376 61,-32 194,-29 302,6 234,77 569,290 1016,644 414,329 565,433 1072,735 249,149 322,189 335,181 28,-17 163,-177 177,-210 7,-17 27,-41 43,-52 36,-26 93,-111 143,-213 32,-66 42,-78 73,-88 48,-16 341,0 743,40 167,16 385,34 485,40 100,6 229,15 286,21 57,5 105,8 108,5 12,-12 10,-270 -3,-365 -60,-421 -328,-763 -755,-965 -278,-131 -532,-197 -1129,-291 -467,-74 -663,-119 -839,-191 -307,-127 -494,-344 -479,-555 7,-95 44,-167 132,-255 186,-186 494,-289 1248,-419 348,-60 413,-75 671,-145 120,-33 272,-71 337,-85 589,-124 1269,-59 1900,182 742,283 1312,786 1769,1560 264,448 440,991 477,1478 4,50 8,97 10,105 1,8 3,112 3,231 l 1,215 218,62 c 975,277 1941,662 2684,1070 1300,714 2380,1696 3184,2898 793,1185 1319,2543 1553,4014 54,338 102,807 116,1130 4,74 8,169 10,210 2,41 4,168 5,281 v 206 l 48,33 c 26,19 137,122 247,230 110,108 243,228 295,267 131,96 204,165 261,246 59,85 89,161 96,249 5,62 4,68 -20,92 -30,30 -52,31 -129,7 z m -35,-213 c -42,-79 -144,-174 -300,-278 -111,-76 -172,-127 -313,-265 -234,-228 -213,-212 -245,-187 l -26,21 63,68 c 35,38 97,100 138,139 103,96 432,380 505,436 59,44 182,118 198,118 5,0 -4,-24 -20,-52 z m -2853,-729 c 663,-37 840,-57 1317,-143 139,-25 321,-53 404,-63 l 152,-18 -7,-260 c -7,-276 -9,-317 -32,-600 -131,-1609 -632,-3153 -1462,-4505 -626,-1021 -1473,-1923 -2427,-2587 -330,-229 -994,-622 -1003,-593 -7,21 -40,45 -192,140 -212,133 -422,273 -492,327 l -60,46 9,91 c 4,50 8,147 8,216 0,114 -3,130 -27,182 -31,67 -68,108 -98,108 -32,0 -34,-24 -7,-92 37,-93 41,-129 38,-358 l -1,-85 -138,140 c -76,77 -219,237 -319,356 l -181,216 -3,92 c -4,102 -15,121 -70,121 -29,0 -45,-14 -51,-45 -2,-14 -43,31 -159,175 -290,363 -410,534 -654,935 -210,345 -278,453 -529,835 -207,316 -393,615 -504,811 -28,50 -30,58 -17,75 19,25 19,68 1,84 -8,6 -29,10 -46,8 -29,-3 -33,2 -101,117 -180,304 -225,400 -375,803 -117,312 -122,325 -244,587 -82,177 -170,379 -170,393 0,10 24,-14 42,-42 18,-28 19,-28 14,-6 -21,83 -30,69 125,189 639,495 1333,918 2330,1421 447,225 769,351 1249,489 489,140 850,213 1540,311 990,140 1453,168 2140,129 z m -7509,-2702 c 21,-62 71,-192 113,-289 64,-150 142,-355 222,-585 l 18,-52 -28,-88 c -76,-236 -273,-740 -436,-1114 -40,-90 -141,-331 -225,-534 -84,-204 -185,-443 -225,-530 -188,-414 -223,-494 -274,-622 -108,-275 -140,-380 -140,-470 -1,-67 3,-86 20,-109 30,-41 74,-57 107,-39 25,13 27,13 27,-9 0,-17 -15,-33 -57,-61 -47,-31 -138,-97 -229,-167 -12,-9 -119,150 -273,406 -63,104 -70,120 -58,135 8,9 25,45 39,81 24,61 44,130 134,465 58,216 332,1162 371,1280 51,157 86,242 321,785 115,267 249,580 297,695 48,116 111,253 141,305 105,186 132,297 89,356 -30,39 -40,34 -42,-20 -2,-56 -32,-123 -112,-255 -91,-149 -258,-498 -559,-1163 -23,-52 -34,-66 -47,-62 -9,4 -33,-5 -55,-20 -22,-14 -40,-24 -40,-22 0,14 122,263 163,332 26,44 69,137 96,205 27,68 86,203 131,299 107,229 181,411 219,540 19,61 41,115 55,130 13,14 26,33 29,42 8,21 -27,66 -54,70 -17,2 2,23 92,100 63,53 119,97 124,97 6,0 26,-50 46,-112 z m -593,-379 c -8,-13 -27,-44 -42,-70 -15,-27 -40,-57 -55,-67 -15,-11 -67,-65 -117,-120 l -89,-101 -17,22 c -10,13 -17,26 -15,30 3,9 338,328 345,328 2,0 -2,-10 -10,-22 z m -376,-456 c -123,-157 -307,-482 -424,-746 -22,-50 -91,-244 -153,-431 -62,-187 -156,-464 -208,-615 -52,-151 -114,-344 -138,-428 l -43,-154 -66,134 c -37,73 -87,169 -112,213 -51,89 -93,184 -101,230 -4,17 -9,66 -12,110 -8,101 -30,192 -55,227 l -20,27 97,128 c 53,70 105,137 114,148 10,11 38,47 63,80 150,203 512,618 850,974 l 231,244 3,-52 c 3,-44 -1,-57 -26,-89 z m 1539,-616 46,-89 -89,-191 c -49,-105 -103,-220 -119,-255 -16,-35 -31,-62 -34,-60 -2,3 12,47 31,99 40,106 74,230 74,271 0,17 -9,35 -25,47 -22,17 -23,22 -13,50 13,33 -1,62 -27,62 -23,0 -104,-92 -177,-200 -39,-58 -67,-96 -63,-85 4,11 42,112 85,225 42,113 96,263 120,333 l 42,129 52,-124 c 29,-67 73,-163 97,-212 z m -1697,-5 c -13,-46 -24,-89 -24,-97 0,-16 -231,-476 -236,-471 -6,6 54,202 82,271 24,57 196,387 201,383 1,-1 -9,-40 -23,-86 z m 1890,-353 37,-67 -89,-148 c -203,-337 -353,-646 -541,-1113 -17,-42 -30,-65 -30,-53 -1,32 31,122 111,313 199,472 259,636 292,795 9,40 41,126 76,200 34,72 66,141 71,154 9,23 10,24 23,5 7,-10 30,-49 50,-86 z m -4019,52 c 185,-12 393,-40 550,-76 99,-22 375,-100 383,-109 2,-1 -17,-29 -41,-62 -93,-122 -201,-288 -384,-589 -492,-806 -622,-1059 -778,-1509 -50,-144 -67,-180 -81,-181 -42,-2 -51,-5 -70,-18 -17,-13 -19,-28 -20,-143 -1,-71 -5,-143 -8,-160 l -7,-31 -72,24 c -201,68 -498,90 -687,50 -435,-93 -834,-406 -1141,-898 -39,-62 -163,-300 -276,-528 -113,-228 -233,-462 -266,-520 -72,-126 -185,-294 -224,-333 -15,-15 -119,-72 -229,-126 l -202,-99 -29,18 c -67,41 -113,128 -133,257 -11,67 -15,387 -6,480 3,26 8,86 11,133 3,47 24,247 45,445 40,368 46,445 55,715 17,501 42,670 140,965 216,649 682,1296 1196,1662 463,329 1140,570 1749,623 245,21 326,22 525,10 z m 3429,-314 c -54,-124 -99,-224 -101,-222 -5,5 96,262 146,370 23,49 44,87 46,84 3,-3 -38,-107 -91,-232 z m 958,-351 c 41,-66 132,-209 201,-318 70,-109 127,-200 127,-203 0,-2 -8,-4 -17,-4 -9,0 -27,-10 -39,-21 l -23,-21 15,48 c 12,42 12,50 -1,71 -32,49 -81,49 -137,1 -37,-31 -130,-207 -124,-233 3,-11 -13,-59 -36,-110 -54,-121 -126,-305 -248,-640 -136,-371 -202,-534 -357,-875 -71,-157 -145,-322 -163,-367 -19,-46 -36,-81 -38,-78 -7,6 105,386 158,535 80,229 165,426 413,966 114,248 171,379 280,644 89,214 115,309 101,364 -12,50 -46,44 -88,-16 -27,-39 -27,-42 -11,-55 16,-11 17,-18 7,-51 -7,-21 -96,-209 -198,-418 -639,-1302 -661,-1357 -865,-2146 -102,-398 -197,-756 -204,-777 -6,-16 -47,37 -222,286 -115,162 -120,172 -98,177 54,14 57,25 49,190 l -6,152 93,74 c 113,89 296,270 364,360 77,101 144,218 167,293 28,93 23,220 -12,292 -34,70 -99,132 -155,147 -25,7 -45,17 -45,23 0,23 200,683 259,855 72,211 110,311 190,497 104,244 281,593 375,741 l 27,44 93,-154 c 51,-84 126,-207 168,-273 z m -2213,166 c -40,-89 -74,-159 -76,-157 -6,5 53,148 99,244 68,140 53,84 -23,-87 z m -1248,-235 c -1,-158 8,-198 85,-379 245,-575 732,-1536 947,-1868 l 36,-56 -87,-74 c -48,-41 -172,-149 -277,-240 -271,-236 -416,-354 -525,-425 -98,-64 -351,-204 -368,-204 -11,0 -136,130 -208,216 -28,34 -107,144 -174,245 -68,101 -163,238 -210,304 -137,189 -208,302 -262,415 -27,58 -55,116 -61,130 -7,14 -23,26 -35,28 -12,2 -22,5 -22,6 0,14 60,172 115,301 166,395 462,925 790,1415 207,309 238,350 249,332 4,-8 8,-74 7,-146 z m 2450,-81 c -17,-52 -71,-170 -130,-280 -156,-294 -270,-551 -336,-756 -24,-73 -32,-87 -56,-96 -19,-7 -46,-38 -80,-90 -49,-76 -51,-77 -44,-38 17,99 82,263 147,365 147,235 384,680 493,928 15,34 29,61 31,59 2,-1 -10,-43 -25,-92 z m -1675,-192 c -50,-149 -105,-273 -140,-318 -9,-11 4,36 28,105 47,137 147,370 158,370 4,0 -17,-71 -46,-157 z m 3182,-441 c 46,-73 81,-138 78,-145 -3,-6 -11,-20 -18,-29 -18,-26 2,-44 32,-28 43,23 38,-7 -23,-140 l -30,-65 -7,39 c -8,42 -40,76 -71,76 -23,0 -23,3 -2,58 15,39 15,46 1,76 -20,41 -68,64 -103,48 -28,-13 -107,-165 -255,-494 -52,-114 -95,-206 -97,-205 -3,4 163,434 227,587 81,194 170,376 178,364 4,-6 45,-70 90,-142 z m -3123,17 c -7,-92 -28,-179 -41,-166 -3,3 4,60 15,127 12,68 21,126 21,131 0,5 3,9 6,9 3,0 2,-46 -1,-101 z m -176,-487 c 17,-33 56,-45 89,-30 15,7 49,46 76,87 28,41 51,70 53,64 2,-5 -12,-66 -31,-135 -19,-69 -40,-157 -47,-197 -7,-39 -16,-71 -19,-71 -3,0 -61,112 -130,250 l -126,250 56,55 55,55 5,-152 c 4,-95 11,-162 19,-176 z m 3601,-22 c 107,-179 256,-408 342,-528 55,-75 60,-87 54,-120 -10,-65 -46,-164 -113,-307 -36,-77 -134,-304 -218,-505 -84,-201 -194,-462 -245,-580 -106,-248 -199,-480 -368,-915 -105,-273 -142,-376 -194,-555 l -13,-44 -80,-18 -79,-19 -66,32 c -36,18 -90,48 -120,68 -68,44 -231,200 -362,348 -83,94 -98,115 -89,130 9,16 10,16 11,-5 0,-52 78,-90 128,-63 15,8 17,4 14,-31 -8,-74 62,-114 112,-64 34,33 91,216 181,576 82,333 164,586 360,1110 64,173 184,497 265,720 82,223 189,502 238,621 50,119 98,242 108,273 14,44 20,54 29,44 7,-7 54,-83 105,-168 z m -2019,-188 c -27,-92 -56,-189 -63,-216 l -13,-49 -75,-24 c -41,-12 -76,-23 -77,-23 -1,0 1,24 4,53 6,54 30,107 154,344 l 70,131 25,-24 24,-25 z m -606,-136 c -4,-94 -7,-108 -34,-150 -26,-41 -36,-74 -57,-173 -9,-43 -24,-23 -24,31 0,34 13,99 35,169 36,121 74,227 80,227 2,0 2,-47 0,-104 z m 155,-219 c -19,-18 -27,-23 -20,-12 27,38 43,55 49,50 3,-3 -10,-20 -29,-38 z m 540,-112 c 39,-20 50,-43 50,-102 0,-199 -216,-454 -665,-788 -455,-339 -1514,-1045 -1567,-1045 -10,0 -31,-13 -46,-29 -31,-33 -113,-85 -682,-431 -534,-325 -623,-378 -646,-386 -10,-4 -28,-15 -39,-24 -11,-10 -198,-125 -415,-255 -601,-362 -710,-436 -1170,-799 -284,-224 -509,-375 -710,-475 -221,-111 -304,-125 -352,-60 -34,46 -22,211 28,384 14,48 21,55 208,204 500,397 923,681 2036,1368 808,498 939,574 1468,849 467,242 522,280 1007,693 627,534 896,728 1155,834 125,51 130,52 130,28 0,-32 35,-61 74,-61 39,0 70,31 81,80 7,34 14,36 55,15 z m 2469,-132 c 23,-29 41,-55 41,-58 0,-3 -10,-5 -23,-5 -13,0 -29,-6 -36,-12 -7,-7 -63,-104 -124,-215 -61,-111 -113,-201 -114,-199 -4,3 89,252 145,391 22,55 44,113 47,128 4,15 11,27 15,25 4,-2 26,-26 49,-55 z m -5818,-398 c 39,-60 111,-166 159,-235 48,-69 116,-170 150,-224 l 63,-99 -59,-56 c -33,-31 -173,-164 -313,-296 -280,-264 -428,-421 -502,-534 -26,-41 -50,-79 -53,-85 -2,-6 -18,3 -35,20 l -32,30 51,110 c 108,230 143,295 260,484 185,298 293,535 307,675 6,57 -8,80 -54,91 -46,12 -73,-21 -103,-126 -51,-181 -117,-310 -328,-640 -135,-210 -192,-315 -218,-394 -8,-28 -18,-57 -20,-65 -3,-8 -26,13 -60,54 -30,37 -53,70 -52,74 40,82 178,347 269,517 128,240 208,408 260,549 24,65 42,98 66,120 25,22 34,38 34,60 0,17 -1,57 -2,90 -2,110 1,132 22,158 l 20,27 49,-98 c 27,-53 81,-146 121,-207 z m 6086,66 119,-145 -8,-55 c -27,-175 -101,-409 -220,-701 -241,-590 -286,-713 -339,-920 -11,-44 -11,-44 -25,-20 -7,14 -21,49 -30,78 l -16,54 32,81 c 18,45 80,188 137,317 113,254 193,472 193,526 0,21 -8,42 -21,55 l -21,21 111,225 c 64,129 111,237 111,254 0,41 -32,69 -79,69 -34,0 -45,-6 -76,-42 -23,-27 -35,-35 -32,-23 17,60 47,188 57,241 12,71 3,104 -36,125 -16,8 -24,21 -24,38 v 26 l 24,-30 c 13,-16 77,-95 143,-174 z M 3945,7515 c 42,-262 96,-418 176,-510 45,-51 11,-46 -47,7 -79,73 -122,183 -143,363 -13,115 -25,322 -18,315 3,-3 17,-81 32,-175 z m 17706,-225 c 57,-69 150,-175 206,-237 l 103,-111 -56,-119 c -145,-309 -261,-648 -314,-922 -10,-51 -22,-97 -27,-101 -21,-20 -1000,-335 -1011,-325 -1,1 14,26 34,56 20,30 55,91 77,137 28,58 43,80 50,73 16,-16 70,-13 92,3 18,13 21,11 37,-15 22,-36 61,-39 82,-6 13,21 286,720 410,1050 89,238 142,413 192,636 3,13 9,20 13,15 4,-5 54,-65 112,-134 z m -902,-229 c -34,-100 -64,-180 -66,-177 -7,7 66,245 94,309 14,31 28,56 29,54 2,-2 -24,-86 -57,-186 z m -2679,27 c 0,-13 -3,-54 -7,-91 l -6,-68 -40,61 c -39,59 -39,61 -21,75 10,7 28,20 39,29 27,21 35,20 35,-6 z m -2337,-210 c 36,-46 86,-103 111,-128 25,-24 46,-47 46,-51 0,-3 -28,-21 -62,-39 -219,-115 -758,-425 -914,-527 l -29,-18 22,34 c 52,83 198,245 467,518 158,161 290,293 291,293 2,0 33,-37 68,-82 z m 2245,-178 c 126,-189 282,-413 381,-546 l 22,-31 -18,-67 c -16,-60 -16,-70 -3,-94 29,-51 110,-74 170,-49 10,4 23,-5 40,-29 14,-20 46,-60 72,-88 27,-28 48,-56 48,-63 0,-6 -11,-87 -25,-180 -31,-210 -33,-308 -6,-322 39,-21 49,4 78,197 23,154 29,182 44,182 23,0 40,-16 178,-172 66,-75 156,-167 200,-205 44,-37 80,-70 80,-73 2,-12 -739,-145 -1168,-210 -254,-38 -305,-52 -317,-84 -4,-10 -20,-8 -75,6 -38,9 -111,20 -161,24 l -92,7 -199,196 c -354,348 -599,660 -694,884 l -33,78 136,87 c 224,143 817,540 1003,671 96,67 178,118 181,114 4,-4 75,-109 158,-233 z m 4160,81 c -47,-95 -85,-161 -103,-181 -13,-14 -42,-61 -65,-105 -88,-166 -112,-210 -115,-213 -16,-17 134,407 185,521 l 21,47 40,-32 c 22,-17 38,-34 37,-37 z m -1576,-217 c -69,-163 -174,-386 -179,-381 -5,6 91,235 163,387 37,77 69,139 71,136 2,-2 -23,-66 -55,-142 z m 1926,-32 c 67,-45 167,-106 222,-137 55,-32 100,-59 100,-61 0,-9 -461,-226 -468,-220 -2,2 12,35 31,72 62,124 86,237 62,284 -21,40 -72,53 -116,30 -24,-14 -24,-5 3,65 12,33 26,54 33,51 6,-2 66,-40 133,-84 z m -3720,-2 c 29,0 63,5 74,11 17,9 20,9 15,-2 -115,-266 -177,-411 -177,-419 0,-27 -22,-14 -59,34 l -42,54 36,138 c 20,77 41,156 46,177 10,36 11,37 32,22 13,-9 43,-15 75,-15 z m 3382,-500 c 0,-5 -4,-10 -10,-10 -5,0 -10,5 -10,10 0,6 5,10 10,10 6,0 10,-4 10,-10 z m -141,-61 c -16,-10 -23,-4 -14,10 3,6 11,8 17,5 6,-4 5,-9 -3,-15 z m -5611,-51 c 13,-35 24,-70 25,-78 3,-23 -157,-126 -463,-295 -398,-221 -567,-331 -664,-434 l -29,-30 -66,61 c -36,34 -67,65 -69,68 -1,4 188,124 420,266 233,142 511,313 618,380 107,68 197,123 200,123 3,1 15,-27 28,-61 z m 5351,-32 c 9,-10 8,-15 -4,-20 -10,-4 -15,1 -15,14 0,24 4,25 19,6 z m -5205,-251 c 26,-41 89,-130 139,-198 l 92,-123 -50,-21 c -27,-11 -111,-48 -185,-81 -207,-92 -377,-150 -580,-198 -264,-63 -315,-79 -340,-112 -16,-20 -20,-36 -16,-61 9,-59 29,-71 118,-71 107,0 194,20 402,90 221,75 357,130 527,215 155,77 179,96 179,139 v 31 l 47,-55 c 26,-30 106,-115 177,-187 72,-73 126,-133 121,-133 -6,0 -61,-7 -123,-15 -62,-8 -219,-19 -350,-24 -136,-6 -373,-25 -557,-45 -176,-20 -372,-38 -435,-41 -63,-3 -131,-8 -150,-10 -33,-4 -37,-2 -60,43 -14,26 -46,75 -72,109 l -46,62 71,72 c 123,122 241,205 587,409 227,134 414,252 425,270 14,23 34,6 79,-65 z m 3741,-125 c 14,-15 25,-41 27,-64 l 3,-40 -188,-47 c -180,-45 -187,-46 -181,-25 50,156 62,188 63,164 1,-33 43,-68 83,-68 32,0 51,17 113,103 l 40,56 9,-27 c 5,-15 19,-38 31,-52 z m -35,-524 c 0,-747 -235,-1459 -696,-2106 -171,-241 -435,-526 -629,-680 -215,-171 -548,-358 -810,-454 -283,-104 -635,-189 -925,-222 -110,-12 -200,-15 -370,-11 -300,6 -361,17 -1009,187 -85,22 -285,65 -445,95 -804,152 -1055,223 -1219,342 -94,69 -125,178 -78,277 65,133 285,254 610,336 168,42 277,62 641,120 531,84 782,148 1025,264 505,241 806,590 897,1041 22,109 33,369 19,463 -4,32 -4,55 2,59 5,3 71,6 146,6 147,1 220,-13 320,-58 65,-30 98,-31 127,-5 17,17 59,27 215,50 465,70 961,158 1347,241 224,47 692,158 757,178 17,5 40,10 53,10 22,1 22,0 22,-133 z"
       id="path78"
       style="fill:#663399;fill-opacity:1" />
    <path
       d="m 22785,14404 c -444,-25 -867,-133 -1383,-353 -79,-34 -189,-84 -244,-112 -56,-28 -121,-57 -143,-64 -23,-7 -75,-33 -116,-59 -41,-26 -139,-86 -219,-132 -226,-133 -460,-292 -471,-321 -13,-36 -1,-71 36,-100 l 32,-26 -42,-61 c -123,-177 -294,-495 -380,-705 -137,-337 -199,-638 -198,-966 0,-279 40,-492 135,-712 203,-474 598,-841 1138,-1058 208,-84 498,-156 750,-187 138,-17 564,-17 700,0 317,39 582,117 845,246 299,147 551,332 815,596 544,543 883,1211 959,1885 13,118 10,365 -5,485 -71,529 -338,954 -791,1256 -205,136 -509,266 -768,327 -190,45 -466,71 -650,61 z m 380,-215 c 553,-64 1060,-338 1358,-734 378,-504 397,-1204 53,-1964 -209,-459 -548,-899 -926,-1201 -315,-251 -708,-445 -1051,-519 -341,-73 -779,-71 -1159,6 -391,79 -706,216 -970,421 -165,129 -324,309 -418,475 -63,110 -63,111 -11,87 103,-47 234,-11 286,77 59,102 50,173 -36,265 -68,74 -185,158 -219,158 -16,0 -38,-14 -61,-38 -39,-40 -101,-149 -101,-176 0,-35 -18,-13 -33,42 -43,154 -51,233 -51,462 0,251 12,339 79,583 46,168 42,163 88,130 71,-50 184,-42 253,19 19,17 34,28 34,26 0,-3 -9,-47 -20,-99 -47,-223 -46,-427 2,-634 97,-416 392,-756 858,-990 625,-313 1309,-320 1910,-19 173,87 280,166 416,305 325,335 579,843 650,1297 22,140 22,368 1,488 -30,169 -100,346 -184,471 -192,282 -597,567 -993,697 -219,72 -332,91 -550,91 -281,0 -353,-21 -383,-109 l -13,-39 -95,-20 c -648,-132 -1283,-647 -1524,-1236 l -22,-54 -7,46 c -8,53 -39,97 -68,97 -11,0 -32,12 -45,26 -21,23 -30,26 -69,21 -24,-2 -44,-4 -44,-3 0,9 151,285 200,367 78,129 237,365 261,388 10,9 84,56 164,105 l 147,89 30,-37 c 83,-101 229,-101 316,-1 57,64 67,122 33,188 l -19,37 47,21 c 386,175 694,278 1050,348 130,26 135,26 121,2 -23,-45 -7,-117 38,-164 62,-65 150,-84 227,-48 82,38 125,111 125,212 v 62 l 118,-7 c 64,-4 158,-12 207,-17 z m -477,-35 c 3,-45 -26,-94 -57,-94 -24,0 -71,38 -71,57 0,8 16,31 35,50 26,26 41,34 62,31 25,-3 28,-8 31,-44 z m -1559,-456 c 10,-27 -9,-72 -34,-82 -31,-11 -73,-6 -96,12 l -22,19 64,36 c 35,20 68,37 72,37 4,0 11,-10 16,-22 z m 1431,-33 c 634,-102 1181,-517 1290,-979 12,-48 23,-137 26,-196 4,-105 3,-108 -24,-146 -16,-21 -45,-52 -66,-67 -97,-74 -322,-151 -536,-182 -126,-19 -142,-23 -295,-87 -109,-46 -567,-220 -1495,-570 -190,-71 -351,-136 -359,-143 -20,-19 -6,-63 22,-70 27,-7 572,197 1567,588 264,103 460,174 590,211 107,31 236,72 285,91 112,43 236,123 277,179 l 30,41 -7,-50 c -48,-351 -226,-782 -441,-1073 -80,-107 -244,-269 -334,-329 -209,-139 -413,-221 -675,-270 -113,-21 -388,-28 -515,-14 -421,49 -799,219 -1097,495 -404,374 -461,982 -146,1540 113,201 326,449 513,597 156,125 382,256 565,329 266,106 574,145 825,105 z m -2384,-1211 c -14,-69 -82,-110 -116,-69 -18,22 12,86 64,132 l 40,37 9,-34 c 5,-19 6,-48 3,-66 z m -35,-1436 c 67,-49 77,-69 55,-103 -38,-59 -146,-13 -146,61 0,31 18,84 28,84 2,0 31,-19 63,-42 z"
       id="path80"
       style="fill:#663399;fill-opacity:1" />
    <path
       d="m 24005,13743 c -11,-10 -15,-27 -13,-44 l 5,-29 -52,6 c -171,20 -257,-140 -135,-250 123,-111 254,-121 351,-27 95,93 97,226 2,312 -50,47 -128,62 -158,32 z m 70,-203 c -15,-58 -63,-73 -131,-40 -83,40 -68,75 28,65 51,-5 59,-3 70,15 12,19 14,19 26,3 7,-10 10,-29 7,-43 z"
       id="path82"
       style="fill:#663399;fill-opacity:1" />
    <path
       d="m 24605,12506 c -17,-25 -13,-47 17,-85 20,-27 24,-72 7,-103 -18,-34 -73,-50 -122,-37 -55,14 -67,25 -67,61 0,37 48,88 83,88 40,0 57,10 57,36 0,44 -92,45 -155,3 -56,-39 -80,-84 -80,-155 0,-75 15,-95 95,-132 108,-49 221,-28 289,55 78,95 62,227 -33,272 -55,27 -72,26 -91,-3 z"
       id="path84"
       style="fill:#663399;fill-opacity:1" />
    <path
       d="m 23909,11161 c -16,-16 -29,-39 -29,-50 0,-18 -3,-19 -24,-10 -85,39 -218,-91 -218,-213 0,-113 100,-196 225,-186 107,9 218,82 255,167 21,50 20,147 -2,191 -36,69 -109,130 -156,130 -12,0 -35,-13 -51,-29 z m 51,-201 c 0,-24 -28,-58 -60,-75 -33,-17 -106,-20 -115,-4 -17,26 8,83 57,131 l 50,48 34,-42 c 19,-24 34,-50 34,-58 z"
       id="path86"
       style="fill:#663399;fill-opacity:1" />
    <path
       d="m 22011,10215 c -18,-8 -44,-15 -57,-15 -43,0 -127,-39 -166,-77 -26,-25 -44,-55 -53,-88 -28,-98 15,-176 129,-235 80,-41 178,-52 236,-28 152,64 199,264 92,389 -56,65 -114,83 -181,54 z m 75,-200 c 4,-16 -1,-36 -13,-57 -16,-28 -25,-33 -63,-36 -61,-4 -134,33 -138,69 -4,31 31,68 80,85 29,10 39,8 80,-12 32,-16 50,-32 54,-49 z"
       id="path88"
       style="fill:#663399;fill-opacity:1" />
    <path
       d="m 23130,13294 c -131,-61 -283,-118 -385,-143 -91,-23 -110,-31 -110,-47 0,-17 7,-19 65,-17 78,1 235,50 405,125 108,47 116,52 113,77 -4,34 -22,35 -88,5 z"
       id="path90"
       style="fill:#663399;fill-opacity:1" />
    <path
       d="m 22935,12719 c -135,-57 -413,-158 -825,-299 -600,-206 -632,-218 -1000,-387 -240,-111 -336,-148 -448,-174 -108,-25 -141,-37 -169,-62 -22,-19 -31,-47 -16,-47 3,0 29,11 57,24 29,14 91,32 139,41 116,22 197,50 562,198 373,151 429,170 846,297 441,135 646,210 851,316 120,62 134,77 102,108 -19,20 -15,20 -99,-15 z"
       id="path92"
       style="fill:#663399;fill-opacity:1" />
    <path
       d="m 21475,12676 c -88,-29 -250,-88 -360,-131 -110,-43 -270,-101 -355,-130 -109,-37 -156,-58 -158,-70 -7,-32 8,-65 33,-71 32,-8 203,49 560,187 154,59 329,124 388,144 119,42 139,60 112,101 -9,14 -25,24 -38,24 -12,0 -94,-24 -182,-54 z"
       id="path94"
       style="fill:#663399;fill-opacity:1" />
    <path
       d="m 22665,11220 c -60,-15 -136,-38 -169,-49 -77,-27 -467,-192 -483,-204 -18,-13 -16,-52 2,-67 18,-15 38,-9 264,87 209,89 373,146 478,168 43,9 81,21 85,28 21,33 -1,67 -41,67 -15,-1 -75,-14 -136,-30 z"
       id="path96"
       style="fill:#663399;fill-opacity:1" />
    <path
       d="m 27270,13763 c -35,-13 -50,-37 -50,-80 0,-40 3,-45 33,-58 17,-7 30,-15 28,-17 -3,-1 -2,-13 1,-25 5,-18 13,-23 37,-23 40,0 51,22 51,108 0,54 -4,72 -18,85 -18,17 -53,21 -82,10 z"
       id="path98"
       style="fill:#663399;fill-opacity:1" />
    <path
       d="m 27102,12778 c -18,-18 -14,-56 9,-87 15,-21 25,-57 34,-126 12,-96 21,-115 56,-115 67,0 66,187 -1,294 -24,37 -35,46 -58,46 -15,0 -33,-5 -40,-12 z"
       id="path100"
       style="fill:#663399;fill-opacity:1" />
    <path
       d="m 26868,12289 c -11,-6 -18,-22 -18,-39 0,-22 7,-33 29,-45 58,-29 88,-90 92,-185 1,-25 -2,-113 -6,-196 -9,-194 6,-248 65,-229 75,24 78,431 5,575 -22,44 -95,120 -114,120 -5,0 -15,2 -23,5 -7,2 -21,0 -30,-6 z"
       id="path102"
       style="fill:#663399;fill-opacity:1" />
    <path
       d="m 26622,11608 c -18,-18 -14,-53 8,-73 42,-38 51,-127 34,-335 -5,-58 -9,-151 -9,-206 0,-116 10,-137 59,-132 53,5 60,44 61,328 0,281 -9,331 -73,395 -37,37 -60,43 -80,23 z"
       id="path104"
       style="fill:#663399;fill-opacity:1" />
    <path
       d="m 26067,10863 c -17,-17 -5,-44 27,-59 69,-33 87,-110 87,-359 -1,-99 -3,-190 -5,-203 -8,-39 -10,-196 -2,-219 9,-29 41,-38 70,-20 30,20 35,56 42,327 5,175 3,231 -10,300 -28,149 -93,240 -171,240 -17,0 -35,-3 -38,-7 z"
       id="path106"
       style="fill:#663399;fill-opacity:1" />
    <path
       d="m 25510,10315 c -11,-13 -9,-28 8,-88 38,-127 43,-204 36,-509 -6,-259 -5,-289 10,-312 21,-33 60,-34 80,-3 22,35 39,271 33,463 -4,137 -10,187 -30,264 -35,133 -65,194 -98,198 -14,2 -31,-4 -39,-13 z"
       id="path108"
       style="fill:#663399;fill-opacity:1" />
    <path
       d="m 24902,9578 c -19,-19 -14,-35 18,-65 23,-21 33,-42 40,-83 8,-49 4,-365 -5,-379 -1,-3 -6,-63 -10,-133 -7,-125 -7,-126 17,-142 29,-19 62,-11 75,17 13,27 18,161 18,427 -1,236 -13,299 -66,344 -33,28 -68,33 -87,14 z"
       id="path110"
       style="fill:#663399;fill-opacity:1" />
    <path
       d="m 24412,9840.4012 c -30,-12 -41,-45 -31,-91 24,-104 41,-262 45,-419 9,-297 26,-390 72,-390 31,0 44,17 59,76 20,82 25,334 8,459 -28,198 -58,328 -82,353 -24,24 -36,26 -71,12 z"
       id="path112"
       style="fill:#663399;fill-opacity:1" />
    <path
       d="m 23860,8965 c -7,-8 -10,-27 -7,-42 43,-219 48,-264 48,-443 -1,-173 -6,-237 -52,-623 -9,-76 -9,-100 1,-112 17,-21 67,-19 78,3 13,24 49,225 66,362 19,151 14,493 -8,609 -20,107 -54,232 -68,248 -14,17 -43,16 -58,-2 z"
       id="path114"
       style="fill:#663399;fill-opacity:1" />
    <path
       d="m 23355,8303 c -18,-18 -18,-28 9,-158 24,-111 26,-305 5,-530 -20,-231 -21,-514 0,-538 18,-22 58,-22 65,1 12,42 61,422 70,547 3,39 8,104 11,145 11,150 -31,467 -70,527 -19,28 -65,31 -90,6 z"
       id="path116"
       style="fill:#663399;fill-opacity:1" />
    <path
       d="m 22865,8060 c -13,-14 -19,-39 -21,-83 -6,-127 -15,-236 -29,-377 -8,-80 -18,-228 -21,-330 -7,-204 -3,-222 50,-222 41,0 54,20 60,97 32,366 47,535 50,565 3,19 8,101 12,181 6,141 6,147 -15,168 -27,27 -62,27 -86,1 z"
       id="path118"
       style="fill:#663399;fill-opacity:1" />
    <path
       d="m 14357,8989 c -10,-6 -22,-21 -27,-33 -12,-31 5,-273 20,-291 7,-8 25,-15 41,-15 24,0 30,5 38,38 13,52 24,225 16,260 -3,18 -16,34 -31,41 -30,13 -34,13 -57,0 z"
       id="path120"
       style="fill:#663399;fill-opacity:1" />
    <path
       d="m 13740,8965 c -14,-16 -6,-65 10,-65 6,0 15,-11 20,-25 9,-23 50,-298 66,-440 3,-33 10,-68 15,-77 14,-26 47,-32 76,-13 25,17 25,17 21,129 -6,123 -48,343 -80,419 -32,75 -96,111 -128,72 z"
       id="path122"
       style="fill:#663399;fill-opacity:1" />
    <path
       d="m 13424,8915 c -15,-15 -23,-32 -20,-43 24,-81 52,-387 55,-598 2,-168 13,-268 32,-290 16,-20 66,-18 78,4 31,59 40,352 17,544 -23,180 -56,361 -72,386 -19,30 -59,28 -90,-3 z"
       id="path124"
       style="fill:#663399;fill-opacity:1" />
    <path
       d="m 12939,8671 -23,-18 32,-164 c 18,-90 48,-265 67,-389 20,-124 37,-231 40,-237 7,-21 60,-15 81,8 16,18 19,37 18,132 0,62 -6,146 -13,187 -14,83 -94,410 -111,456 -19,48 -51,57 -91,25 z"
       id="path126"
       style="fill:#663399;fill-opacity:1" />
    <path
       d="m 12636,8231 c -15,-17 -16,-27 -7,-73 6,-29 15,-111 21,-183 17,-215 38,-297 96,-385 29,-44 57,-51 74,-20 8,16 5,35 -13,88 -27,75 -41,149 -57,302 -26,251 -36,290 -79,290 -10,0 -26,-9 -35,-19 z"
       id="path128"
       style="fill:#663399;fill-opacity:1" />
    <path
       d="m 12142,7734 c -6,-11 -6,-29 -1,-48 5,-17 25,-115 44,-217 34,-184 68,-312 87,-336 14,-18 43,-16 59,3 10,13 5,53 -31,241 -23,125 -52,258 -64,297 -20,67 -24,71 -53,74 -22,2 -34,-2 -41,-14 z"
       id="path130"
       style="fill:#663399;fill-opacity:1" />
    <path
       d="m 18147,5915 c -10,-9 -18,-45 -22,-92 -4,-43 -15,-148 -26,-234 -10,-85 -20,-199 -22,-253 -2,-87 0,-99 17,-112 24,-17 37,-18 59,-1 13,9 21,42 31,127 8,63 21,158 30,210 8,52 20,146 26,208 10,99 10,116 -4,138 -19,28 -66,33 -89,9 z"
       id="path132"
       style="fill:#663399;fill-opacity:1" />
    <path
       d="m 17738,5778 c -12,-10 -17,-41 -22,-128 -3,-63 -12,-140 -21,-170 -28,-99 -29,-116 -10,-124 28,-10 43,11 70,95 19,60 45,234 45,301 0,9 -30,38 -39,38 -4,0 -14,-6 -23,-12 z"
       id="path134"
       style="fill:#663399;fill-opacity:1" />
    <path
       d="m 18936,3578 c -12,-17 -14,-37 -10,-88 11,-107 30,-134 79,-112 18,8 24,21 29,59 13,97 11,135 -9,149 -29,21 -72,17 -89,-8 z"
       id="path136"
       style="fill:#663399;fill-opacity:1" />
    <path
       d="m 17960,2965 c -11,-13 -9,-36 8,-128 21,-112 26,-160 37,-357 8,-129 10,-138 41,-146 66,-17 77,19 71,226 -6,178 -40,365 -73,402 -21,22 -67,24 -84,3 z"
       id="path138"
       style="fill:#663399;fill-opacity:1" />
    <path
       d="m 18330,2965 c -20,-24 -6,-97 37,-210 37,-95 41,-100 69,-100 27,0 29,3 32,44 2,24 -6,73 -17,110 -11,36 -23,85 -27,109 -7,44 -25,62 -62,62 -11,0 -25,-7 -32,-15 z"
       id="path140"
       style="fill:#663399;fill-opacity:1" />
    <path
       d="m 17601,2841 c -17,-17 -19,-43 -26,-257 -9,-271 -1,-493 18,-532 9,-20 20,-27 42,-27 22,0 33,7 42,27 19,39 27,261 18,532 -7,214 -9,240 -26,257 -11,11 -26,19 -34,19 -8,0 -23,-8 -34,-19 z"
       id="path142"
       style="fill:#663399;fill-opacity:1" />
    <path
       d="m 17041,2714 c -11,-15 -19,-29 -17,-33 9,-14 36,-264 41,-381 12,-252 26,-422 37,-442 14,-27 74,-24 90,5 20,35 16,413 -6,562 -25,177 -47,288 -58,303 -18,22 -65,14 -87,-14 z"
       id="path144"
       style="fill:#663399;fill-opacity:1" />
    <path
       d="m 16610,2540 c -24,-24 -24,-24 -5,-95 17,-66 31,-175 40,-300 8,-121 24,-216 37,-233 17,-20 61,-10 74,17 20,39 28,204 16,310 -15,126 -57,292 -79,309 -25,18 -60,15 -83,-8 z"
       id="path146"
       style="fill:#663399;fill-opacity:1" />
    <path
       d="m 16096,2202 c -3,-6 1,-27 10,-48 11,-27 19,-87 24,-187 7,-146 15,-175 43,-164 33,12 32,220 -2,308 -22,57 -64,108 -75,91 z"
       id="path148"
       style="fill:#663399;fill-opacity:1" />
    <path
       d="m 15390,15560 c -11,-11 -20,-24 -20,-29 0,-5 18,-56 40,-113 49,-125 70,-201 80,-293 9,-77 30,-105 80,-105 61,0 77,45 61,169 -16,130 -75,293 -131,364 -27,34 -80,37 -110,7 z"
       id="path150"
       style="fill:#663399;fill-opacity:1" />
    <path
       d="m 18140,15429 c -105,-76 -249,-245 -301,-351 -26,-54 -19,-84 25,-114 42,-27 70,-12 121,65 25,38 93,122 151,187 58,66 112,134 121,153 13,32 13,36 -5,60 -28,38 -60,37 -112,0 z"
       id="path152"
       style="fill:#663399;fill-opacity:1" />
    <path
       d="m 2253,15365 c -31,-22 -140,-159 -174,-221 l -30,-52 -24,24 c -13,13 -30,24 -37,24 -7,0 -101,-13 -208,-29 -181,-27 -196,-31 -217,-56 -33,-38 -35,-113 -3,-175 20,-40 109,-127 188,-184 82,-60 92,-87 89,-257 -3,-197 14,-239 93,-239 50,0 137,36 203,84 34,26 90,67 125,92 l 62,46 50,-45 c 58,-52 111,-80 195,-102 85,-22 112,-20 144,13 30,30 38,64 60,254 13,112 33,149 132,248 58,59 89,99 113,150 37,77 37,100 -2,130 -23,18 -41,20 -226,20 l -201,1 -35,51 c -75,112 -213,238 -260,238 -8,0 -25,-7 -37,-15 z m 134,-211 c 75,-83 78,-88 75,-130 -3,-36 1,-48 22,-69 l 26,-26 155,3 c 85,2 155,2 155,1 0,-1 -29,-29 -63,-62 -102,-98 -128,-161 -143,-349 -3,-51 -10,-94 -13,-97 -17,-10 -110,46 -142,85 -58,73 -77,90 -101,90 -35,0 -92,-34 -193,-113 -94,-74 -175,-125 -175,-110 -1,4 -2,67 -3,138 -3,178 -16,204 -147,297 -52,38 -108,82 -124,100 -36,40 -41,38 154,73 108,20 151,32 168,48 12,11 22,15 22,8 0,-15 47,-33 69,-26 9,3 31,31 50,62 37,63 112,162 123,163 3,0 42,-39 85,-86 z"
       id="path154"
       style="fill:#663399;fill-opacity:1" />
    <path
       d="m 13095,15322 c -30,-5 -43,-14 -53,-35 -18,-37 0,-85 34,-93 33,-9 455,1 477,10 22,11 32,51 19,80 -7,15 -23,26 -44,30 -50,9 -387,15 -433,8 z"
       id="path156"
       style="fill:#663399;fill-opacity:1" />
    <path
       d="m 8906,14589 c -57,-14 -150,-66 -201,-114 -56,-52 -61,-91 -16,-136 44,-43 79,-38 149,22 41,36 124,79 152,79 30,0 80,53 80,85 0,14 -11,37 -25,50 -26,27 -66,31 -139,14 z"
       id="path158"
       style="fill:#663399;fill-opacity:1" />
    <path
       d="m 5725,14254 c -270,-23 -587,-96 -826,-190 l -90,-35 -18,22 c -26,32 -53,21 -150,-66 -57,-51 -119,-94 -196,-135 -63,-33 -127,-72 -144,-86 -33,-28 -52,-77 -44,-117 4,-22 -11,-45 -94,-139 -567,-645 -871,-1292 -954,-2028 -15,-134 -15,-474 0,-610 54,-493 204,-920 434,-1242 330,-461 859,-802 1512,-973 286,-75 551,-108 865,-108 585,1 1081,142 1507,429 171,115 257,187 413,343 l 135,136 45,-22 c 86,-44 154,-20 166,58 7,53 -20,91 -81,112 -5,2 30,62 77,133 318,480 483,981 513,1559 8,142 -7,362 -36,533 -62,375 -218,748 -455,1089 -364,523 -940,980 -1499,1188 -136,51 -339,102 -498,126 -128,19 -463,32 -582,23 z m 525,-300 c 446,-64 879,-269 1280,-605 325,-272 597,-630 773,-1016 26,-56 47,-107 47,-113 0,-5 -10,-10 -22,-10 -35,0 -75,-29 -183,-134 -115,-110 -161,-137 -247,-142 -44,-2 -66,-8 -82,-23 -27,-25 -46,-26 -117,-5 -60,18 -149,73 -254,158 -90,73 -139,96 -310,147 -239,71 -285,117 -212,212 41,54 91,198 82,238 -4,18 -31,50 -71,86 -78,70 -93,106 -94,221 0,160 54,356 155,563 58,118 60,140 13,155 -30,9 -49,-16 -114,-151 -99,-205 -156,-424 -157,-605 -1,-127 18,-184 86,-250 l 51,-50 -18,-55 c -10,-31 -34,-74 -57,-101 -36,-42 -39,-50 -39,-105 0,-129 62,-185 293,-265 171,-60 310,-139 449,-257 82,-70 135,-96 227,-113 122,-22 178,-19 205,11 13,14 32,25 43,25 38,0 141,60 207,121 37,34 68,60 71,58 5,-6 -21,-76 -38,-101 -15,-24 -63,-54 -209,-132 -156,-83 -240,-169 -255,-258 -9,-59 -17,-62 -166,-55 -186,7 -250,-13 -293,-95 -29,-55 -19,-92 42,-157 95,-103 190,-137 422,-150 73,-4 135,-10 137,-13 3,-3 -6,-31 -21,-64 -36,-82 -40,-141 -16,-249 20,-89 52,-329 72,-540 5,-60 21,-153 35,-205 19,-68 23,-101 17,-116 -21,-45 -175,-225 -283,-330 -249,-242 -532,-413 -869,-525 -136,-45 -316,-89 -422,-104 l -47,-6 -6,48 c -3,26 -18,89 -32,138 -52,183 -53,189 -51,425 2,207 0,230 -20,290 -71,216 -290,355 -557,354 -85,0 -129,-8 -290,-47 -105,-26 -196,-47 -202,-47 -8,0 -10,12 -6,33 6,41 -27,84 -72,93 -25,4 -41,-3 -90,-39 -62,-47 -75,-55 -251,-150 -138,-75 -303,-187 -348,-237 -99,-110 -102,-243 -7,-305 55,-36 116,-48 236,-47 141,2 170,-11 268,-121 126,-142 162,-174 239,-210 89,-43 204,-73 241,-63 53,13 78,96 42,136 -9,10 -58,32 -108,50 -51,17 -109,43 -130,56 -21,14 -97,85 -170,158 -73,73 -150,141 -172,152 -34,16 -62,19 -184,19 -104,0 -145,3 -148,12 -7,20 85,110 166,161 42,27 122,75 179,106 l 102,58 168,2 c 138,2 188,7 291,29 325,70 561,-3 628,-196 19,-54 19,-63 12,-402 l -3,-150 41,-125 c 38,-116 47,-154 44,-189 -2,-21 -403,-8 -581,18 -894,132 -1579,573 -1908,1228 l -41,80 107,6 c 137,9 217,28 317,77 90,45 104,56 194,158 85,95 146,127 234,120 87,-7 180,-49 407,-183 311,-185 385,-214 487,-196 109,21 193,75 224,146 10,22 23,78 29,123 6,46 16,95 21,110 14,36 2,78 -28,102 -23,18 -41,20 -192,20 -170,0 -238,10 -248,36 -7,19 20,81 70,157 78,121 111,204 121,307 4,36 13,75 21,86 8,12 61,58 119,103 196,151 257,279 199,413 -29,65 -80,117 -225,229 -192,149 -204,188 -159,499 58,402 44,578 -54,676 -56,55 -124,73 -216,55 -122,-24 -220,-84 -414,-256 -232,-205 -299,-225 -397,-116 -24,27 -45,41 -62,41 -15,0 -63,-29 -127,-76 -56,-42 -121,-85 -143,-95 -48,-22 -105,-24 -129,-6 -16,11 -12,22 44,122 109,196 284,450 436,630 56,66 61,70 96,67 24,-2 56,5 93,22 l 57,26 56,-27 c 54,-27 62,-28 216,-28 h 160 l 99,53 c 85,45 106,52 155,52 77,0 171,17 238,42 78,29 135,89 182,191 50,108 59,115 151,120 121,7 357,-3 470,-19 z m -760,-32 c 0,-15 -56,-88 -85,-110 -35,-28 -103,-48 -191,-57 -94,-10 -133,-26 -222,-89 -80,-56 -145,-80 -242,-91 -58,-6 -151,12 -152,30 -1,21 276,149 470,216 124,43 362,108 400,109 12,0 22,-4 22,-8 z m -300,-880 c 61,-62 67,-214 18,-459 -41,-207 -46,-387 -10,-473 29,-72 84,-144 152,-197 93,-74 192,-166 211,-198 11,-16 19,-41 19,-56 0,-42 -53,-113 -125,-165 -236,-172 -236,-171 -246,-292 -5,-71 -13,-102 -44,-167 -21,-44 -50,-98 -65,-120 -72,-105 -97,-190 -80,-269 14,-68 49,-109 117,-142 53,-25 70,-28 196,-32 93,-3 137,-8 137,-16 0,-6 -5,-28 -11,-48 -13,-48 -49,-68 -122,-68 -64,0 -121,27 -337,159 -245,150 -361,199 -496,208 -88,6 -171,-12 -234,-50 -19,-12 -80,-65 -135,-117 -151,-146 -235,-184 -395,-183 -113,0 -168,16 -181,51 -30,76 -89,383 -109,567 -15,134 -20,435 -9,565 28,333 114,674 245,974 l 46,106 31,-17 c 19,-9 57,-17 92,-17 50,-1 73,5 135,36 41,20 100,52 130,71 l 54,35 35,-30 c 53,-47 96,-61 169,-55 108,8 216,75 452,276 169,144 295,187 360,123 z m 3278,-1208 c 28,-132 42,-270 42,-397 0,-91 -2,-105 -17,-110 -22,-6 -133,-220 -136,-262 -2,-23 2,-31 18,-32 16,-2 31,16 70,88 44,80 50,87 53,61 6,-58 -43,-336 -58,-327 -14,9 -19,-9 -24,-81 -5,-76 -45,-211 -107,-361 -50,-121 -160,-343 -169,-343 -7,0 -19,81 -41,275 -6,55 -13,103 -15,107 -2,4 -8,64 -13,135 -5,86 -14,139 -25,160 -15,31 -15,35 9,100 14,37 41,95 60,129 37,65 42,97 24,137 -19,42 -52,49 -274,57 -198,8 -279,20 -322,48 -7,4 47,8 120,8 114,-1 138,2 178,21 56,26 79,55 79,103 0,43 29,108 61,137 13,12 78,52 144,89 171,95 227,141 264,215 18,36 33,85 37,122 8,73 13,63 42,-79 z"
       id="path160"
       style="fill:#663399;fill-opacity:1" />
    <path
       d="m 7196,13248 c -51,-68 -116,-243 -116,-316 0,-25 6,-35 25,-44 36,-16 47,-2 89,114 19,53 51,128 70,165 31,59 34,70 22,88 -22,34 -60,31 -90,-7 z"
       id="path162"
       style="fill:#663399;fill-opacity:1" />
    <path
       d="m 7392,13088 c -5,-7 -24,-42 -42,-78 -18,-36 -57,-106 -86,-157 -103,-179 -116,-235 -57,-241 31,-3 36,1 94,90 65,99 179,321 179,349 0,37 -65,65 -88,37 z"
       id="path164"
       style="fill:#663399;fill-opacity:1" />
    <path
       d="m 7493,12908 c -5,-7 -19,-37 -31,-67 -12,-29 -65,-129 -117,-221 -105,-185 -129,-236 -121,-256 13,-33 39,-6 119,124 114,185 132,218 172,313 42,97 44,119 11,119 -13,0 -28,-6 -33,-12 z"
       id="path166"
       style="fill:#663399;fill-opacity:1" />
    <path
       d="m 7799,12768 c -11,-13 -43,-57 -70,-98 -28,-41 -75,-106 -104,-144 -59,-73 -68,-108 -35,-126 29,-16 45,-3 135,104 129,155 173,250 126,276 -27,14 -29,13 -52,-12 z"
       id="path168"
       style="fill:#663399;fill-opacity:1" />
    <path
       d="m 7962,12561 c -15,-9 -72,-138 -72,-162 0,-28 27,-35 52,-13 33,30 79,134 68,154 -11,21 -33,31 -48,21 z"
       id="path170"
       style="fill:#663399;fill-opacity:1" />
    <path
       d="m 6847,10794 c -4,-4 -30,-11 -58,-15 -71,-11 -92,-32 -84,-84 9,-58 8,-84 -2,-140 -17,-94 10,-170 74,-208 32,-18 245,-67 295,-67 63,0 123,55 153,141 17,48 32,250 21,292 -3,15 -15,31 -25,37 -11,5 -88,15 -173,21 -84,6 -157,15 -162,20 -12,11 -30,12 -39,3 z m 287,-186 c 16,-60 0,-153 -33,-197 l -17,-22 -115,16 c -62,10 -122,21 -131,26 -41,22 -51,88 -25,152 l 16,36 88,4 c 225,8 210,9 217,-15 z"
       id="path172"
       style="fill:#663399;fill-opacity:1" />
    <path
       d="m 5357,9748 c -55,-73 -121,-243 -115,-295 3,-25 7,-28 37,-28 h 34 l 69,155 c 57,128 67,159 58,178 -15,34 -54,29 -83,-10 z"
       id="path174"
       style="fill:#663399;fill-opacity:1" />
    <path
       d="m 5655,9633 c -95,-151 -155,-254 -161,-281 -4,-12 -1,-29 6,-37 28,-34 47,-16 133,128 128,212 149,255 137,278 -22,40 -46,22 -115,-88 z"
       id="path176"
       style="fill:#663399;fill-opacity:1" />
    <path
       d="m 5830,9508 c -12,-35 -63,-148 -112,-253 -94,-197 -109,-248 -73,-253 16,-2 35,25 102,145 93,168 117,225 133,311 21,118 -13,152 -50,50 z"
       id="path178"
       style="fill:#663399;fill-opacity:1" />
    <path
       d="m 4953,12632 c -16,-10 -89,-166 -104,-224 -14,-51 -3,-78 31,-78 25,0 37,17 87,128 58,124 62,145 32,166 -27,18 -29,19 -46,8 z"
       id="path180"
       style="fill:#663399;fill-opacity:1" />
    <path
       d="m 3878,12422 c -26,-11 -184,-219 -217,-287 -31,-65 -54,-155 -45,-179 8,-21 32,-28 54,-16 11,6 37,45 60,88 22,43 83,134 135,204 52,69 95,135 95,146 0,32 -47,57 -82,44 z"
       id="path182"
       style="fill:#663399;fill-opacity:1" />
    <path
       d="m 4148,12403 c -8,-10 -30,-45 -48,-78 -18,-33 -113,-181 -210,-330 -228,-348 -223,-341 -216,-370 7,-29 49,-43 71,-25 40,33 372,555 444,699 35,69 37,83 15,105 -20,21 -37,20 -56,-1 z"
       id="path184"
       style="fill:#663399;fill-opacity:1" />
    <path
       d="m 4334,12223 c -75,-138 -151,-263 -269,-448 -201,-315 -295,-483 -288,-517 5,-19 27,-30 46,-23 7,3 29,31 48,63 20,31 99,154 176,272 162,250 266,424 334,564 51,104 57,124 37,144 -26,26 -47,12 -84,-55 z"
       id="path186"
       style="fill:#663399;fill-opacity:1" />
    <path
       d="m 4577,11918 c -123,-193 -175,-306 -162,-349 8,-24 44,-44 56,-32 6,6 29,43 53,84 23,41 70,118 104,171 67,104 75,138 40,162 -37,26 -55,19 -91,-36 z"
       id="path188"
       style="fill:#663399;fill-opacity:1" />
    <path
       d="m 4981,11858 c -5,-13 -18,-48 -31,-78 -32,-78 -34,-96 -16,-103 20,-8 41,14 70,72 28,56 38,94 30,115 -9,24 -43,19 -53,-6 z"
       id="path190"
       style="fill:#663399;fill-opacity:1" />
    <path
       d="m 16433,14228 c -29,-32 -71,-118 -147,-306 -69,-171 -128,-273 -192,-333 l -39,-37 -205,-6 c -389,-11 -522,-47 -566,-152 -39,-92 82,-220 359,-379 105,-61 116,-70 103,-84 -7,-9 -44,-99 -81,-201 -37,-102 -90,-237 -116,-300 -27,-63 -49,-126 -49,-141 0,-32 34,-69 64,-69 32,0 203,90 376,197 80,50 185,112 233,138 84,45 92,47 145,42 85,-9 195,-49 411,-149 205,-95 317,-138 361,-138 16,0 36,11 51,26 24,25 24,29 22,187 -2,165 -22,290 -57,341 -13,20 -6,29 98,133 62,61 149,158 195,215 95,120 259,362 267,396 11,39 -4,72 -41,89 -34,16 -37,16 -88,-6 -168,-74 -299,-100 -548,-108 l -176,-6 -73,219 c -74,223 -141,372 -191,425 -34,37 -86,40 -116,7 z m 86,-277 c 28,-72 112,-372 131,-464 5,-25 20,-49 46,-72 35,-31 44,-35 79,-30 22,3 94,10 160,14 128,9 334,35 400,51 22,5 44,10 48,10 11,0 -76,-124 -160,-230 -37,-47 -119,-136 -182,-199 -132,-133 -129,-121 -81,-276 28,-89 55,-253 44,-264 -8,-8 -116,30 -264,92 -196,81 -291,113 -385,127 -44,7 -88,16 -97,21 -10,5 -30,9 -44,9 -40,0 -187,-78 -350,-185 -79,-52 -144,-92 -144,-88 0,3 34,101 75,218 41,116 75,217 75,223 0,7 5,12 11,12 5,0 17,16 24,35 30,69 -15,115 -211,218 -145,76 -243,136 -265,163 -17,21 -5,28 91,53 106,29 230,41 413,41 h 158 l 75,73 c 111,107 173,209 292,480 11,26 23,47 26,47 2,0 18,-35 35,-79 z"
       id="path192"
       style="fill:#663399;fill-opacity:1" />
    <path
       d="m 10902,14065 -21,-26 20,-57 c 32,-91 35,-196 10,-361 -13,-80 -23,-178 -24,-219 -1,-67 1,-76 22,-93 31,-25 57,-24 84,4 19,18 27,49 47,182 39,256 32,430 -23,545 -19,40 -26,45 -58,48 -30,2 -41,-2 -57,-23 z"
       id="path194"
       style="fill:#663399;fill-opacity:1" />
    <path
       d="m 18710,13794 c -14,-5 -138,-58 -170,-74 -8,-4 -16,-23 -18,-43 -3,-31 1,-39 22,-49 27,-12 63,-4 183,40 67,24 83,38 83,73 0,48 -43,71 -100,53 z"
       id="path196"
       style="fill:#663399;fill-opacity:1" />
    <path
       d="m 13602,12350 c -113,-57 -416,-276 -424,-307 -3,-11 1,-34 8,-52 23,-56 57,-45 223,71 80,56 196,128 256,158 122,62 144,86 124,136 -22,59 -59,58 -187,-6 z"
       id="path198"
       style="fill:#663399;fill-opacity:1" />
    <path
       d="m 28724,9118 c -56,-61 -154,-201 -154,-220 0,-5 -11,3 -24,18 l -23,28 -209,-29 c -132,-19 -215,-35 -226,-45 -11,-8 -23,-33 -28,-54 -23,-102 30,-183 209,-319 85,-65 95,-91 87,-227 -8,-137 5,-217 40,-248 23,-20 34,-23 73,-17 64,8 153,54 235,120 38,30 84,64 102,76 l 34,21 48,-42 c 76,-67 176,-109 271,-113 45,-2 56,2 72,21 25,32 37,79 49,203 16,161 29,188 135,299 132,139 173,230 122,278 -22,21 -32,22 -224,22 h -201 l -74,97 c -82,109 -182,193 -227,193 -22,0 -42,-14 -87,-62 z m 184,-164 c 77,-83 79,-87 75,-127 -4,-32 0,-48 15,-67 20,-25 20,-25 184,-23 l 163,3 -61,-58 c -108,-100 -135,-164 -149,-342 -4,-52 -11,-99 -15,-104 -5,-4 -24,-3 -45,4 -38,12 -90,59 -138,123 -49,65 -101,49 -266,-81 -47,-37 -98,-76 -113,-85 -50,-31 -53,-26 -50,88 4,127 -10,204 -45,246 -15,17 -62,56 -106,87 -79,55 -147,115 -147,130 0,4 73,21 162,37 117,21 167,34 181,48 17,17 20,17 36,3 10,-9 30,-16 45,-16 21,0 32,9 54,46 38,64 121,174 132,174 4,0 44,-39 88,-86 z"
       id="path200"
       style="fill:#663399;fill-opacity:1" />
    <path
       d="m 9604,6628 c -54,-59 -154,-201 -154,-219 0,-4 -11,3 -25,16 -13,14 -32,25 -42,25 -51,-1 -406,-60 -419,-71 -7,-6 -19,-29 -25,-51 -26,-97 35,-192 203,-316 35,-26 66,-59 79,-83 19,-37 20,-52 14,-148 -8,-126 5,-214 38,-249 45,-49 162,-11 307,100 47,35 97,73 113,82 l 27,18 44,-40 c 57,-53 132,-90 215,-108 89,-18 98,-18 126,10 30,30 42,75 55,202 17,165 29,193 125,293 144,149 186,245 129,290 -25,20 -40,21 -228,21 l -201,1 -49,69 c -87,124 -197,220 -252,220 -14,0 -43,-22 -80,-62 z m 183,-163 c 75,-82 78,-88 75,-128 -3,-31 2,-50 16,-67 20,-25 22,-25 182,-25 h 161 l -59,-55 c -104,-98 -133,-162 -146,-330 -9,-106 -13,-120 -35,-120 -31,0 -110,58 -146,109 -37,51 -51,61 -89,61 -27,0 -98,-44 -186,-114 -72,-58 -138,-103 -158,-108 -10,-2 -13,27 -15,132 -3,188 -10,202 -160,314 -116,85 -151,122 -125,131 15,5 287,55 300,55 4,0 18,10 29,21 12,12 24,17 28,12 11,-18 49,-33 66,-27 9,4 32,32 52,63 47,74 113,161 124,161 4,0 43,-38 86,-85 z"
       id="path202"
       style="fill:#663399;fill-opacity:1" />
    <path
       d="m 1539,6183 c -69,-73 -101,-116 -138,-183 -27,-49 -30,-51 -40,-32 -6,11 -20,23 -31,27 -20,6 -379,-42 -418,-56 -27,-10 -52,-64 -52,-111 1,-74 52,-144 180,-243 122,-95 122,-96 121,-267 -1,-222 18,-266 111,-255 69,9 142,47 259,137 57,44 109,80 115,80 5,0 23,-14 40,-31 59,-63 140,-102 246,-120 111,-18 131,10 154,214 9,80 22,148 34,175 12,26 57,83 104,133 83,85 146,184 146,229 0,12 -11,32 -25,45 -24,25 -25,25 -227,25 h -204 l -52,73 c -84,117 -197,217 -247,217 -14,0 -42,-21 -76,-57 z m 174,-166 c 72,-80 75,-85 75,-131 -1,-36 4,-52 21,-69 20,-21 31,-22 176,-22 85,0 155,-2 155,-5 0,-3 -27,-29 -59,-58 -41,-36 -70,-72 -91,-115 -29,-60 -32,-73 -56,-284 -6,-49 -16,-53 -73,-24 -34,18 -59,42 -128,125 -41,49 -94,31 -239,-83 -49,-39 -111,-82 -138,-97 l -49,-27 7,104 c 13,191 -10,243 -148,343 -114,84 -154,122 -140,135 5,5 79,21 164,37 104,19 160,34 172,46 11,11 20,13 24,7 9,-15 52,-29 69,-23 8,3 31,33 51,65 43,71 111,159 123,159 5,0 42,-37 84,-83 z"
       id="path204"
       style="fill:#663399;fill-opacity:1" />
    <path
       d="m 27908,6213 c -46,-52 -102,-205 -118,-322 -11,-78 -1,-197 23,-270 27,-81 142,-88 179,-11 15,32 15,41 1,105 -21,97 -11,191 32,320 33,99 34,108 21,139 -8,19 -23,39 -34,45 -32,17 -87,13 -104,-6 z"
       id="path206"
       style="fill:#663399;fill-opacity:1" />
    <path
       d="m 25326,6194 c -31,-32 -33,-59 -5,-99 45,-66 79,-148 129,-305 63,-201 105,-291 166,-359 38,-43 51,-51 80,-51 81,0 112,92 54,165 -47,59 -77,133 -121,297 -48,181 -86,265 -147,330 -40,43 -49,48 -87,48 -32,0 -48,-6 -69,-26 z"
       id="path208"
       style="fill:#663399;fill-opacity:1" />
    <path
       d="m 14065,5885 c -291,-70 -593,-171 -925,-312 -313,-132 -953,-458 -1188,-604 -350,-217 -649,-494 -1146,-1059 -133,-152 -156,-190 -116,-198 9,-1 94,81 205,199 614,651 926,895 1520,1189 460,227 803,366 1395,565 238,80 439,150 446,156 32,26 6,100 -34,98 -9,0 -80,-15 -157,-34 z"
       id="path210"
       style="fill:#663399;fill-opacity:1" />
    <path
       d="m 23445,4905 c -37,-36 -32,-74 15,-134 74,-94 264,-234 359,-266 27,-9 71,-15 98,-13 42,3 49,6 57,31 16,46 1,61 -104,104 -31,12 -86,58 -175,144 -169,164 -203,182 -250,134 z"
       id="path212"
       style="fill:#663399;fill-opacity:1" />
    <path
       d="m 29575,4819 c -64,-43 -197,-104 -345,-161 -180,-69 -200,-80 -200,-112 0,-49 21,-52 148,-22 220,54 325,97 420,173 40,33 42,37 42,89 0,62 -12,68 -65,33 z"
       id="path214"
       style="fill:#663399;fill-opacity:1" />
    <path
       d="m 14824,4708 c -61,-62 -171,-180 -244,-262 -266,-295 -700,-675 -1065,-933 -702,-496 -1395,-732 -2717,-924 -87,-12 -158,-26 -158,-31 0,-4 12,-5 28,-3 15,2 83,9 152,15 662,56 1302,185 1788,360 604,216 1038,488 1723,1076 293,251 483,453 610,647 70,107 76,123 53,148 -32,36 -55,24 -170,-93 z"
       id="path216"
       style="fill:#663399;fill-opacity:1" />
    <path
       d="m 25952,4683 c -65,-44 -95,-91 -236,-367 -140,-274 -163,-331 -247,-619 l -52,-178 -21,20 c -38,35 -65,35 -147,-3 -117,-54 -231,-83 -514,-131 -521,-89 -595,-127 -519,-271 54,-102 142,-173 346,-277 68,-35 178,-100 245,-144 67,-44 147,-91 177,-104 38,-16 56,-30 56,-42 0,-10 -14,-115 -30,-232 -54,-378 -56,-542 -9,-716 29,-109 50,-139 94,-139 73,0 160,65 362,272 149,152 237,226 464,395 68,50 147,115 176,142 29,28 55,51 58,51 3,0 5,-10 5,-23 0,-38 47,-121 97,-171 133,-135 428,-286 726,-372 138,-40 165,-41 200,-14 30,24 34,41 42,200 3,63 19,230 35,370 16,140 32,297 36,347 l 7,93 127,115 c 351,317 487,514 514,745 11,101 -25,128 -170,129 -107,1 -237,-22 -419,-74 -167,-48 -221,-59 -380,-75 -60,-6 -148,-20 -194,-31 -46,-10 -85,-18 -87,-16 -2,2 -53,131 -113,288 -204,532 -266,661 -370,768 -91,94 -181,116 -259,64 z m 174,-245 c 74,-111 139,-260 228,-524 97,-289 167,-462 201,-496 79,-78 101,-81 215,-33 63,27 125,38 360,64 62,7 150,28 255,61 181,57 296,83 348,78 l 36,-3 -23,-67 c -41,-115 -124,-228 -290,-393 -83,-82 -188,-181 -233,-219 -80,-67 -82,-69 -97,-135 -43,-190 -74,-441 -83,-667 l -6,-162 -36,10 c -75,19 -231,73 -350,120 -220,86 -360,165 -423,237 -62,73 -78,93 -78,100 0,14 -45,49 -65,51 -42,5 -55,-2 -151,-83 -54,-45 -169,-136 -254,-201 -113,-87 -205,-171 -342,-310 -103,-105 -190,-187 -194,-183 -17,16 -33,152 -34,272 0,183 46,606 68,622 40,29 52,48 52,83 0,44 -26,72 -85,90 -55,17 -99,40 -250,130 -71,42 -179,99 -239,125 -149,67 -264,143 -239,158 21,13 185,49 373,82 113,20 232,43 265,51 156,39 315,103 344,138 12,14 16,14 34,1 60,-42 93,-5 158,175 111,307 192,499 291,688 56,107 113,208 126,224 l 25,29 24,-23 c 14,-13 45,-53 69,-90 z"
       id="path218"
       style="fill:#663399;fill-opacity:1" />
    <path
       d="m 22728,3069 c -50,-29 -40,-93 20,-126 20,-12 64,-29 96,-38 122,-35 443,3 506,60 26,24 26,76 0,100 -20,18 -23,18 -118,0 -120,-22 -298,-23 -402,-1 -87,19 -80,18 -102,5 z"
       id="path220"
       style="fill:#663399;fill-opacity:1" />
    <path
       d="m 28920,2682 c -21,-17 -23,-24 -15,-48 9,-25 19,-31 75,-45 36,-8 125,-39 199,-68 101,-40 151,-54 206,-58 65,-5 75,-3 94,16 24,24 28,73 7,90 -8,7 -47,20 -88,30 -40,10 -127,34 -193,54 -66,19 -152,38 -190,42 -62,6 -74,4 -95,-13 z"
       id="path222"
       style="fill:#663399;fill-opacity:1" />
    <path
       d="m 20152,1653 c -56,-60 -128,-156 -153,-205 l -19,-37 -25,24 c -13,14 -28,25 -33,25 -5,0 -99,-13 -208,-30 -184,-27 -201,-31 -221,-55 -33,-38 -34,-113 -3,-175 20,-39 109,-127 186,-183 87,-63 89,-68 90,-252 0,-224 18,-258 124,-241 63,10 121,40 211,108 46,35 99,74 117,87 l 32,23 51,-46 c 65,-59 140,-93 233,-108 74,-11 77,-11 101,12 32,30 42,68 56,205 16,158 34,198 133,297 59,60 92,103 118,155 40,79 40,102 0,133 -23,18 -41,20 -226,20 l -201,1 -35,51 c -78,116 -213,238 -264,238 -11,0 -40,-21 -64,-47 z m 241,-310 c -5,-35 -2,-45 20,-67 26,-26 28,-26 182,-26 h 156 l -61,-57 c -102,-94 -132,-165 -145,-339 -4,-50 -10,-96 -14,-102 -12,-20 -104,31 -142,78 -58,73 -77,90 -101,90 -35,0 -92,-34 -197,-117 -52,-41 -111,-83 -133,-94 -36,-18 -38,-18 -38,-2 -2,234 -5,268 -30,313 -18,33 -51,63 -120,112 -111,80 -159,127 -139,138 8,4 70,17 139,29 163,29 197,38 204,56 5,13 9,12 26,-5 20,-20 47,-25 66,-12 6,4 32,41 58,82 27,41 62,90 80,108 l 31,34 82,-89 c 81,-86 82,-89 76,-130 z"
       id="path224"
       style="fill:#663399;fill-opacity:1" />
    <path
       d="m 24249,1298 c -8,-7 -34,-45 -57,-84 -55,-95 -140,-208 -253,-339 -135,-155 -150,-175 -143,-199 11,-35 36,-56 68,-56 27,0 49,18 156,128 69,70 154,169 190,220 78,111 150,239 150,268 0,49 -75,92 -111,62 z"
       id="path226"
       style="fill:#663399;fill-opacity:1" />
    <path
       d="m 27434,1298 c -28,-13 -44,-49 -37,-79 4,-12 54,-86 113,-165 121,-160 164,-238 185,-338 17,-82 39,-110 90,-110 58,0 80,31 79,112 -1,86 -32,179 -88,265 -44,67 -214,278 -249,310 -21,19 -60,21 -93,5 z"
       id="path228"
       style="fill:#663399;fill-opacity:1" />
    <path
       d="m 25580,812 c -27,-22 -113,-358 -136,-537 -28,-212 -12,-275 71,-275 64,0 74,18 90,157 16,132 37,242 89,451 38,153 37,176 -6,206 -30,21 -80,20 -108,-2 z"
       id="path230"
       style="fill:#663399;fill-opacity:1" />
  </g>
</svg>
